<?xml version="1.0" encoding="utf-8"?>
<!-- Generator: Adobe Illustrator 24.0.3, SVG Export Plug-In . SVG Version: 6.00 Build 0)  -->
<svg version="1.1" id="Layer_1" xmlns="http://www.w3.org/2000/svg" xmlns:xlink="http://www.w3.org/1999/xlink" x="0px" y="0px"
	 viewBox="0 0 300 150" style="enable-background:new 0 0 300 150;" xml:space="preserve">
<style type="text/css">
	.st0{fill:#FFFFFF;}
	.st1{fill:#B6DB3D;}
	.st2{fill:#96B826;}
	.st3{fill:#8AAB28;}
	.st4{opacity:0.79;fill:#B6DB3D;enable-background:new    ;}
	.st5{opacity:0.3;fill:#634E42;enable-background:new    ;}
	.st6{fill:#3B301B;}
	.st7{fill:#634E42;}
	.st8{fill:#CCFCEA;}
	.st9{fill:#676968;}
	.st10{fill:#B55429;}
	.st11{opacity:0.3;fill:#4D4D4D;enable-background:new    ;}
	.st12{fill:#F9B876;}
	.st13{opacity:0.19;fill:#4D4D4D;enable-background:new    ;}
	.st14{fill:#BDAEA2;}
	.st15{fill:#C5C5C5;}
	.st16{fill:#3B3F3D;}
	.st17{fill:#4D4D4D;}
	.st18{opacity:0.11;fill:#F4F7DA;enable-background:new    ;}
	.st19{fill:#897E76;}
	.st20{fill:#919191;}
	.st21{fill:#F4F7DA;}
	.st22{fill:#4A3924;}
	.st23{fill:#F4EAE3;}
	.st24{fill:#D8C6BA;}
	.st25{fill:#E3DAD3;}
	.st26{fill:#C7B6AB;}
	.st27{opacity:0.3;fill:#8BB7A5;enable-background:new    ;}
	.st28{fill:#E6E8E7;}
	.st29{fill:#407B81;}
	.st30{fill:#54504F;}
</style>
<g>
	<rect class="st0" width="300" height="110.7"/>
	<rect y="112.5" class="st1" width="300" height="37.5"/>
	<rect y="110.6" class="st2" width="300" height="1.9"/>
	<g>
		<polygon class="st3" points="94.8,63 111,53.6 127.2,63 127.2,81.9 111,91.4 94.8,81.9 		"/>
		<polygon class="st4" points="111,53.6 111,91.4 94.8,81.9 94.8,63 		"/>
		<polygon class="st3" points="79,78.6 89.9,72.2 100.8,78.6 100.8,91.3 89.9,97.6 79,91.3 		"/>
		<polygon class="st4" points="89.9,72.2 89.9,97.6 79,91.3 79,78.6 		"/>
		<polygon class="st3" points="47.5,67.9 62,59.4 76.6,67.9 76.6,84.9 62,93.3 47.5,84.9 		"/>
		<polygon class="st4" points="62,59.4 62,93.3 47.5,84.9 47.5,67.9 		"/>
		<polygon class="st3" points="70.3,76.6 74.4,74.2 78.5,76.6 78.5,81.4 74.4,83.8 70.3,81.4 		"/>
		<polygon class="st5" points="74.4,74.2 74.4,83.8 70.3,81.4 70.3,76.6 		"/>
		<polygon class="st3" points="44.6,63.5 51.7,59.4 58.8,63.5 58.8,71.8 51.7,75.9 44.6,71.8 		"/>
		<polygon class="st4" points="51.7,59.4 51.7,75.9 44.6,71.8 44.6,63.5 		"/>
		<polygon class="st3" points="14,68.3 28.4,59.9 42.8,68.3 42.8,85.1 28.4,93.5 14,85.1 		"/>
		<polygon class="st4" points="28.4,59.9 28.4,93.5 14,85.1 14,68.3 		"/>
		<polygon class="st3" points="0,82.1 9.7,76.5 19.4,82.1 19.4,93.4 9.7,99 0,93.4 		"/>
		<polygon class="st4" points="9.7,76.5 9.7,99 0,93.4 0,82.1 		"/>
		<path class="st6" d="M117.3,83.2l-5.6,5l-0.3-8.5c0-0.2-0.1-0.3-0.3-0.3c-0.2,0-0.3,0.1-0.3,0.3l-0.3,8.5l-5.3-4.7
			c-0.1-0.1-0.3-0.1-0.4,0c-0.1,0.1-0.1,0.3,0,0.4l5.7,6.5l-0.8,20.1c0,0.1,0,0.2,0.1,0.2c0.1,0.1,0.1,0.1,0.2,0.1h2.4
			c0.2,0,0.3-0.1,0.3-0.3c0,0,0-0.1,0-0.1l-0.8-20l6-6.9c0.1-0.1,0.1-0.3-0.1-0.4C117.6,83.1,117.5,83.1,117.3,83.2L117.3,83.2z"/>
		<path class="st6" d="M93.6,94.5l-3.2,2.8l-0.2-4.8c0-0.1-0.1-0.2-0.2-0.2c-0.1,0-0.2,0.1-0.2,0.2l-0.2,4.8l-3-2.6
			c-0.1-0.1-0.2-0.1-0.3,0c-0.1,0.1-0.1,0.2,0,0.3l3.3,3.8L89,110.5c0,0.1,0,0.1,0.1,0.2c0,0,0.1,0.1,0.2,0.1h1.4
			c0.1,0,0.2-0.1,0.2-0.2c0,0,0,0,0-0.1l-0.4-11.6l3.5-4c0.1-0.1,0.1-0.3,0-0.4C93.8,94.4,93.7,94.4,93.6,94.5L93.6,94.5z"/>
		<path class="st6" d="M67.3,87.8l-4.6,4.1l-0.3-7c0-0.1-0.1-0.3-0.3-0.3c0,0,0,0,0,0c-0.1,0-0.3,0.1-0.3,0.3l-0.3,7l-4.4-3.9
			c-0.1-0.1-0.3-0.1-0.4,0c-0.1,0.1-0.1,0.3,0,0.4l4.7,5.4l-0.7,16.7c0,0.1,0.1,0.3,0.3,0.3c0,0,0,0,0,0h2c0.1,0,0.3-0.1,0.3-0.3
			c0,0,0-0.1,0-0.1l-0.6-16.6l4.9-5.7c0.1-0.1,0.1-0.3,0-0.4C67.6,87.7,67.4,87.7,67.3,87.8C67.3,87.8,67.3,87.8,67.3,87.8z"/>
		<path class="st6" d="M33.2,90.1L29,93.8l-0.2-6.3c0-0.1-0.1-0.2-0.2-0.2c-0.1,0-0.2,0.1-0.2,0.2L28,93.8l-3.9-3.5
			c-0.1-0.1-0.2-0.1-0.3,0c-0.1,0.1-0.1,0.2,0,0.3l4.2,4.9l-0.6,15c0,0.1,0,0.1,0.1,0.2c0,0,0.1,0.1,0.2,0.1h1.8
			c0.1,0,0.2-0.1,0.2-0.2l0,0c0,0,0,0,0-0.1l-0.6-14.9l4.4-5.1c0.1-0.1,0.1-0.3,0-0.3C33.4,90.1,33.3,90.1,33.2,90.1L33.2,90.1z"/>
		<path class="st6" d="M13.7,92.7l-3.5,3.1L10,90.5c0-0.2-0.1-0.3-0.3-0.3c-0.2,0-0.3,0.1-0.3,0.3l-0.2,5.2L6,92.9
			c-0.1-0.1-0.3-0.1-0.4,0c-0.1,0.1-0.1,0.3,0,0.4l3.6,4.2l-0.5,13c0,0.2,0.1,0.3,0.3,0.3c0,0,0,0,0,0h1.5c0.2,0,0.3-0.1,0.3-0.3
			l0,0c0,0,0-0.1,0-0.1l-0.5-12.9l3.8-4.4c0.1-0.1,0.1-0.3,0-0.4C14,92.6,13.8,92.6,13.7,92.7L13.7,92.7z"/>
		<polygon class="st7" points="9.7,90.5 9.7,110.5 9,110.5 9.5,97.4 9.4,97.4 5.7,93.1 9.5,96.4 		"/>
		<polygon class="st7" points="28.5,87.5 28.5,110.6 27.6,110.6 28.2,95.5 28.2,95.5 23.9,90.5 28.2,94.4 		"/>
		<polygon class="st7" points="62.1,84.9 62.1,110.5 61.1,110.5 61.8,93.8 61.8,93.8 57,88.3 61.8,92.5 		"/>
		<polygon class="st7" points="90,92.5 90,110.5 89.3,110.5 89.7,98.7 89.7,98.7 86.4,94.9 89.8,97.8 		"/>
		<polygon class="st7" points="111.1,79.7 111.1,110.5 109.9,110.5 110.7,90.3 110.6,90.3 104.9,83.7 110.7,88.8 		"/>
		<g>
			<polygon class="st3" points="262.6,55.8 281.3,44.9 300,55.8 300,77.6 281.3,88.4 262.6,77.6 			"/>
			<polygon class="st4" points="281.3,44.9 281.3,88.4 262.6,77.6 262.6,55.8 			"/>
			<path class="st6" d="M288.6,79l-6.5,5.8l-0.4-9.8c0-0.2-0.1-0.3-0.3-0.3c-0.2,0-0.3,0.1-0.3,0.3l-0.4,9.8l-6.2-5.4
				c-0.1-0.1-0.3-0.1-0.5,0c-0.1,0.1-0.1,0.3,0,0.5l6.5,7.5l-0.9,23.1c0,0.1,0,0.2,0.1,0.2c0.1,0.1,0.1,0.1,0.2,0.1h2.7
				c0.2,0,0.3-0.1,0.3-0.3c0,0,0-0.1,0-0.1l-0.9-23l6.9-7.9c0.1-0.1,0.1-0.4-0.1-0.5C288.9,78.9,288.7,78.9,288.6,79L288.6,79z"/>
			<polygon class="st7" points="281.4,74.9 281.4,110.5 280,110.5 280.9,87.2 280.9,87.2 274.3,79.6 281,85.4 			"/>
		</g>
		<g>
			<polygon class="st3" points="136.9,78.6 147.8,72.2 158.7,78.6 158.7,91.3 147.8,97.6 136.9,91.3 			"/>
			<polygon class="st4" points="147.8,72.2 147.8,97.6 136.9,91.3 136.9,78.6 			"/>
			<path class="st6" d="M151.4,94.5l-3.2,2.8l-0.2-4.8c0-0.1-0.1-0.2-0.2-0.2s-0.2,0.1-0.2,0.2l-0.2,4.8l-3-2.6
				c-0.1-0.1-0.2-0.1-0.3,0c-0.1,0.1-0.1,0.2,0,0.3l3.3,3.8l-0.4,11.7c0,0.1,0,0.1,0.1,0.2c0,0,0.1,0.1,0.2,0.1h1.4
				c0.1,0,0.2-0.1,0.2-0.2c0,0,0,0,0-0.1l-0.4-11.6l3.5-4c0.1-0.1,0.1-0.3,0-0.4C151.7,94.4,151.5,94.4,151.4,94.5L151.4,94.5z"/>
			<polygon class="st7" points="147.8,92.5 147.8,110.5 147.1,110.5 147.6,98.7 147.6,98.7 144.2,94.9 147.6,97.8 			"/>
		</g>
	</g>
	<polygon class="st8" points="163.6,118.4 163.5,117.8 164.2,117.8 	"/>
	<polygon class="st9" points="164.2,117.8 164.2,118.7 163.5,118.5 	"/>
	<g>
		<polygon class="st10" points="244.9,45.1 230.5,59.9 216,74.8 244.9,74.8 273.9,74.8 259.4,59.9 		"/>
		<polygon class="st11" points="217.1,74.8 244.9,46.3 251.1,50.3 250,51.5 227.3,74.8 		"/>
		<rect x="216.3" y="73.4" class="st12" width="49.9" height="37.4"/>
		<polygon class="st13" points="266.2,73.4 266.2,110.8 254,110.8 216.3,73.4 		"/>
		<rect x="165.3" y="73.4" class="st12" width="51.9" height="37.4"/>
		<polygon class="st13" points="217.2,73.4 217.2,110.8 201.2,110.8 165.4,75.2 165.4,73.4 		"/>
		<rect x="165.3" y="105" class="st14" width="51.9" height="5.9"/>
		<rect x="165.3" y="105" class="st15" width="51.9" height="1"/>
		<rect x="186.6" y="88.7" class="st16" width="9.5" height="22.1"/>
		<rect x="187.7" y="90" class="st17" width="7.2" height="20.8"/>
		<rect x="187.7" y="90" class="st18" width="1" height="20.8"/>
		<rect x="217.2" y="105" class="st19" width="49" height="5.9"/>
		<rect x="217.2" y="105" class="st20" width="49" height="1"/>
		<rect x="197.3" y="88.7" class="st16" width="8.6" height="13"/>
		<rect x="198.4" y="89.9" class="st8" width="6.5" height="10.6"/>
		<rect x="198.4" y="89.9" class="st21" width="0.9" height="10.6"/>
		<rect x="176.7" y="88.7" class="st16" width="8.6" height="13"/>
		<rect x="177.7" y="89.9" class="st8" width="6.5" height="10.6"/>
		<rect x="177.7" y="89.9" class="st21" width="0.9" height="10.6"/>
		<rect x="166.3" y="88.7" class="st16" width="8.6" height="13"/>
		<rect x="167.3" y="89.9" class="st8" width="6.5" height="10.6"/>
		<rect x="167.3" y="99.6" class="st21" width="6.5" height="0.9"/>
		<rect x="177.7" y="99.6" class="st21" width="6.5" height="0.9"/>
		<rect x="198.3" y="99.6" class="st21" width="6.5" height="0.9"/>
		<rect x="207.7" y="88.7" class="st16" width="8.6" height="13"/>
		<rect x="208.7" y="89.9" class="st8" width="6.5" height="10.6"/>
		<rect x="208.7" y="89.9" class="st21" width="0.9" height="10.6"/>
		<rect x="229.4" y="88.7" class="st22" width="8.6" height="13"/>
		<rect x="230.4" y="89.9" class="st8" width="6.5" height="10.6"/>
		<rect x="230.4" y="89.9" class="st21" width="0.9" height="10.6"/>
		<rect x="247.6" y="88.7" class="st22" width="8.6" height="13"/>
		<rect x="248.6" y="89.9" class="st8" width="6.5" height="10.6"/>
		<rect x="248.6" y="89.9" class="st21" width="0.9" height="10.6"/>
		<rect x="165.3" y="73.4" class="st23" width="100.8" height="1.8"/>
		<rect x="165.3" y="75.2" class="st24" width="100.8" height="0.8"/>
		<rect x="216.9" y="73.4" class="st25" width="49.3" height="1.8"/>
		<rect x="216.9" y="75.2" class="st26" width="49.3" height="0.8"/>
		<rect x="208.7" y="99.6" class="st21" width="6.5" height="0.9"/>
		<rect x="230.4" y="99.6" class="st21" width="6.5" height="0.9"/>
		<rect x="248.6" y="99.6" class="st21" width="6.5" height="0.9"/>
		<polygon class="st27" points="173.9,89.9 173.9,100.5 167.3,89.9 		"/>
		<polygon class="st27" points="184.2,89.9 184.2,100.5 177.7,89.9 		"/>
		<polygon class="st27" points="204.9,89.9 204.9,100.5 198.3,89.9 		"/>
		<polygon class="st27" points="215.2,89.9 215.2,100.5 208.7,89.9 		"/>
		<polygon class="st27" points="255.1,89.9 255.1,100.5 248.6,89.9 		"/>
		<polygon class="st27" points="237,89.9 237,100.5 230.4,89.9 		"/>
		<polygon class="st9" points="273.5,73.7 273.2,74.1 272.7,74.8 272.5,75 272.3,74.8 271,73.4 244.9,46.3 217.1,74.8 158.7,74.8 
			158.7,73.1 186.6,44.4 187.6,45.7 161,73.1 216.6,73.1 245,43.9 273.2,73.4 		"/>
		<polygon class="st9" points="273.6,73.8 273.6,75 266.2,75 266.2,73.4 273.2,73.4 273.5,73.7 		"/>
		<polygon class="st9" points="274.7,75 272.5,75 272.7,74.8 273.2,74.1 273.5,73.7 273.6,73.8 		"/>
		<polygon class="st17" points="216.6,73.1 244.9,43.9 186.9,44 158.7,73.1 		"/>
		<path class="st9" d="M214.9,69.2L214.9,69.2c0,0.2-0.1,0.4-0.2,0.5l-0.7,0.8c-0.1,0.1-0.3,0.2-0.4,0.2H168c-0.3,0-0.6-0.2-0.6-0.6
			v-0.3c0-0.3,0.2-0.6,0.5-0.6c0,0,0,0,0,0L214.9,69.2z"/>
		<path class="st9" d="M235.7,47.5v0.4c0,0.2,0,0.3-0.2,0.4L214,70.5c-0.1,0.1-0.3,0.2-0.4,0.2h-0.4c-0.1,0-0.3-0.1-0.4-0.2l0,0
			c-0.2-0.2-0.2-0.6,0-0.8c0,0,0,0,0,0l0.4-0.5l21.5-22.1c0.2-0.2,0.6-0.3,0.8,0C235.6,47.1,235.7,47.3,235.7,47.5z"/>
		<path class="st28" d="M234.4,46.1H190c-0.1,0-0.3,0.1-0.4,0.2l-21.4,22.1c-0.2,0.2-0.2,0.5,0,0.7c0.1,0.1,0.2,0.1,0.4,0.1H213
			c0.1,0,0.3-0.1,0.4-0.2L234.8,47c0.2-0.2,0.2-0.5,0-0.7C234.7,46.2,234.5,46.1,234.4,46.1z"/>
		<polygon class="st29" points="179.2,57.5 189.8,46.5 211.9,46.5 201.3,57.5 		"/>
		<polygon class="st29" points="168.2,68.8 178.8,57.9 200.9,57.9 190.3,68.8 		"/>
		<polygon class="st29" points="201.7,57.5 212.3,46.5 234.8,46.5 224.2,57.5 		"/>
		<polygon class="st29" points="190.7,68.8 201.3,57.9 223.8,57.9 213.2,68.8 		"/>
		<path class="st8" d="M235,46.8c0.2-0.2,0.1-0.4,0-0.6c-0.1-0.1-0.2-0.1-0.3-0.1h-44.7c-0.1,0-0.2,0-0.3,0.1l-11.3,11.6l0,0
			L168,68.5c-0.2,0.2-0.2,0.4,0,0.6c0.1,0.1,0.2,0.1,0.3,0.1H213c0.1,0,0.2,0,0.3-0.1l11.3-11.6l0,0L235,46.8z M233.3,47.7l-9,9.2
			c-0.1,0.1-0.2,0.1-0.3,0.1h-20.5c-0.2,0-0.4-0.2-0.4-0.4c0-0.1,0-0.2,0.1-0.3l9-9.2c0.1-0.1,0.2-0.1,0.3-0.1H233
			c0.2,0,0.4,0.2,0.4,0.4C233.4,47.5,233.4,47.6,233.3,47.7L233.3,47.7z M190,47h20.1c0.2,0,0.4,0.2,0.4,0.4c0,0.1,0,0.2-0.1,0.3
			l-9,9.2c-0.1,0.1-0.2,0.1-0.3,0.1H181c-0.2,0-0.4-0.2-0.4-0.4c0-0.1,0-0.2,0.1-0.3l9-9.2C189.7,47,189.8,47,190,47L190,47z
			 M169.7,67.7l9-9.2c0.1-0.1,0.2-0.1,0.3-0.1H199c0.2,0,0.4,0.2,0.4,0.4c0,0.1,0,0.2-0.1,0.3l-8.9,9.2c-0.1,0.1-0.2,0.1-0.3,0.1
			H170c-0.2,0-0.4-0.2-0.4-0.4C169.6,67.9,169.6,67.7,169.7,67.7L169.7,67.7z M213,68.4h-20.5c-0.2,0-0.4-0.2-0.4-0.4
			c0-0.1,0-0.2,0.1-0.3l9-9.2c0.1-0.1,0.2-0.1,0.3-0.1H222c0.2,0,0.4,0.2,0.4,0.4c0,0.1,0,0.2-0.1,0.3l-8.9,9.2
			C213.3,68.3,213.2,68.4,213,68.4L213,68.4z"/>
		<polygon class="st8" points="234.8,47 234.6,46.1 235.7,46.1 		"/>
		<polygon class="st8" points="190.6,57.3 190.4,57.1 200.7,46.5 200.9,46.8 		"/>
		<polygon class="st8" points="206.8,52.1 184.5,52.1 184.5,51.8 206.8,51.8 		"/>
		<polygon class="st8" points="196.7,51.9 196.7,50.9 194.7,51.9 194.7,52.9 		"/>
		<polygon class="st8" points="179.5,68.8 179.3,68.5 189.6,57.9 189.8,58.1 		"/>
		<polygon class="st8" points="195.7,63.5 173.4,63.5 173.4,63.2 195.7,63.2 		"/>
		<polygon class="st8" points="185.5,63.3 185.5,62.3 183.5,63.3 183.6,64.3 		"/>
		<polygon class="st8" points="202.3,68.6 202.1,68.4 212.2,58.1 212.4,58.3 		"/>
		<polygon class="st8" points="218.8,63.5 195.8,63.5 195.7,63.2 218.8,63.2 		"/>
		<polygon class="st8" points="208.3,63.3 208.2,62.3 206.2,63.3 206.3,64.3 		"/>
		<polygon class="st8" points="213.2,57.4 213,57.2 223.3,46.6 223.5,46.8 		"/>
		<polygon class="st8" points="229.5,52.1 207,52.1 207,51.9 229.5,51.9 		"/>
		<polygon class="st8" points="219.3,52 219.2,51 217.2,52 217.3,53 		"/>
		<polygon class="st9" points="235.7,46.1 235.7,47.5 234.6,47.2 		"/>
		<path class="st3" d="M271.2,105.9c0,1.9-0.8,3.7-2.1,4.9h-9.4c-2.7-2.6-2.8-6.9-0.2-9.7c2.6-2.7,6.9-2.8,9.7-0.2
			C270.4,102.3,271.2,104,271.2,105.9z"/>
		<path class="st4" d="M264.3,99.1v11.8h-4.7c-2.7-2.6-2.9-6.9-0.3-9.6C260.6,99.9,262.4,99.1,264.3,99.1z"/>
		<polygon class="st3" points="250.1,107.9 249.3,108.3 249.8,109.1 249,109.3 249.4,110.2 248.5,110.3 248.6,110.8 239.3,110.8 
			239.5,110 238.6,109.9 239,109.1 238.2,108.8 238.8,108.1 238,107.6 238.7,107.1 238,106.4 238.8,106 238.3,105.3 239.1,105 
			238.8,104.2 239.6,104.1 239.4,103.2 240.3,103.3 240.3,102.4 241.2,102.7 241.3,101.8 242.1,102.2 242.4,101.3 243.1,101.9 
			243.6,101.1 244.2,101.8 244.8,101.2 245.2,101.9 246,101.4 246.2,102.3 247.1,101.9 247.2,102.8 248,102.6 248,103.5 
			248.9,103.4 248.6,104.3 249.5,104.5 249.1,105.2 249.9,105.6 249.4,106.3 250.1,106.7 249.4,107.3 		"/>
		<polygon class="st4" points="244.2,101.8 244.2,110.8 239.3,110.8 239.5,110 238.6,109.9 239,109.1 238.2,108.8 238.8,108.1 
			238,107.6 238.7,107.1 238,106.4 238.8,106 238.3,105.3 239.1,105 238.8,104.2 239.6,104.1 239.4,103.2 240.3,103.3 240.3,102.4 
			241.2,102.7 241.3,101.8 242.1,102.2 242.4,101.3 243.1,101.9 243.6,101.1 		"/>
		<polygon class="st3" points="253.2,109.1 252.8,109.3 253.1,109.8 252.6,109.9 252.8,110.4 252.2,110.5 252.3,110.8 246.7,110.8 
			246.8,110.3 246.3,110.3 246.5,109.8 246,109.6 246.4,109.2 245.9,108.9 246.3,108.5 245.9,108.2 246.4,107.9 246.1,107.5 
			246.6,107.3 246.4,106.8 246.9,106.8 246.8,106.2 247.3,106.3 247.3,105.7 247.8,105.9 247.9,105.3 248.4,105.6 248.6,105.1 
			249,105.4 249.3,105 249.7,105.4 250,105 250.3,105.5 250.7,105.1 250.9,105.6 251.4,105.4 251.5,106 252,105.8 251.9,106.4 
			252.5,106.4 252.3,106.9 252.9,107 252.6,107.4 253.1,107.6 252.8,108.1 253.3,108.3 252.8,108.7 		"/>
		<polygon class="st4" points="249.7,105.4 249.7,110.8 246.7,110.8 246.8,110.3 246.3,110.3 246.5,109.8 246,109.6 246.4,109.2 
			245.9,108.9 246.3,108.5 245.9,108.2 246.4,107.9 246.1,107.5 246.6,107.3 246.4,106.8 246.9,106.8 246.8,106.2 247.3,106.3 
			247.3,105.7 247.8,105.9 247.9,105.3 248.4,105.6 248.6,105.1 249,105.4 249.3,105 		"/>
	</g>
	<g>
		<path class="st30" d="M147.6,141.3v0.5c0,0.6-0.7,0.5-1.1,0.5c-0.4,0-1,0-1-0.6v-0.5l0.1-17.4h1.8L147.6,141.3z"/>
		<path class="st30" d="M151.1,142.4h-9c0-0.7,2-1.2,4.5-1.2S151.1,141.7,151.1,142.4z"/>
		<path class="st5" d="M145.6,123.8h0.9v18.6H142c0-0.1,0.1-0.3,0.3-0.4c0.1-0.1,0.2-0.1,0.3-0.2c0.7-0.3,1.4-0.5,2.2-0.6
			c0.2,0,0.5-0.1,0.7-0.1L145.6,123.8z"/>
		<path class="st9" d="M156.6,130.8L156.6,130.8c0,0.2,0,0.3-0.1,0.3l-0.5,0.5c-0.1,0.1-0.2,0.1-0.3,0.1h-29.1
			c-0.2,0-0.4-0.2-0.4-0.4v-0.2c0-0.2,0.2-0.4,0.4-0.4L156.6,130.8z"/>
		<path class="st9" d="M169.8,116.8v0.3c0,0.1,0,0.2-0.1,0.3L156,131.6c-0.1,0.1-0.2,0.1-0.3,0.1h-0.3c-0.1,0-0.2,0-0.2-0.1l0,0
			c-0.1-0.1-0.1-0.4,0-0.5l0.3-0.3l13.7-14.2c0.2-0.1,0.4-0.1,0.5,0.1C169.8,116.7,169.8,116.7,169.8,116.8z"/>
		<path class="st28" d="M169,115.9h-28.3c-0.1,0-0.2,0-0.2,0.1l-13.6,14.2c-0.1,0.1-0.1,0.3,0,0.5c0.1,0.1,0.1,0.1,0.2,0.1h28.3
			c0.1,0,0.2,0,0.2-0.1l13.7-14.2c0.1-0.1,0.1-0.3,0-0.5C169.2,116,169.1,115.9,169,115.9z"/>
		<polygon class="st29" points="133.8,123.2 140.5,116.2 154.6,116.2 147.9,123.2 		"/>
		<polygon class="st29" points="126.8,130.5 133.5,123.5 147.6,123.5 140.9,130.5 		"/>
		<polygon class="st29" points="148.2,123.2 154.9,116.2 169.3,116.2 162.5,123.2 		"/>
		<polygon class="st29" points="141.1,130.5 147.9,123.5 162.3,123.5 155.5,130.5 		"/>
		<path class="st8" d="M169.4,116.4c0.1-0.1,0.1-0.3,0-0.4c0,0-0.1-0.1-0.2-0.1h-28.5c-0.1,0-0.1,0-0.2,0.1l-7.2,7.5l0,0l-6.6,6.8
			c-0.1,0.1-0.1,0.3,0,0.4c0,0,0.1,0.1,0.2,0.1h28.5c0.1,0,0.1,0,0.2-0.1l7.2-7.5l0,0L169.4,116.4z M168.3,116.9l-5.7,5.9
			c-0.1,0.1-0.1,0.1-0.2,0.1h-13.1c-0.1,0-0.3-0.1-0.3-0.3c0-0.1,0-0.1,0.1-0.2l5.7-5.9c0-0.1,0.1-0.1,0.2-0.1h13.1
			c0.1,0,0.3,0.1,0.3,0.3C168.4,116.8,168.4,116.9,168.3,116.9L168.3,116.9z M140.7,116.5h12.8c0.1,0,0.3,0.1,0.3,0.3
			c0,0.1,0,0.1-0.1,0.2l-5.7,5.9c-0.1,0.1-0.1,0.1-0.2,0.1h-12.8c-0.1,0-0.3-0.1-0.3-0.3c0-0.1,0-0.1,0.1-0.2l5.7-5.9
			C140.5,116.5,140.6,116.5,140.7,116.5L140.7,116.5z M127.7,129.8l5.7-5.9c0-0.1,0.1-0.1,0.2-0.1h12.8c0.1,0,0.3,0.1,0.3,0.3
			c0,0.1,0,0.1-0.1,0.2l-5.7,5.9c0,0.1-0.1,0.1-0.2,0.1h-12.8c-0.1,0-0.3-0.1-0.3-0.3C127.7,129.9,127.7,129.8,127.7,129.8z
			 M155.4,130.2h-13.1c-0.1,0-0.3-0.1-0.3-0.3c0-0.1,0-0.1,0.1-0.2l5.7-5.9c0-0.1,0.1-0.1,0.2-0.1h13.1c0.1,0,0.3,0.1,0.3,0.3
			c0,0.1,0,0.1-0.1,0.2l-5.7,5.9C155.5,130.2,155.5,130.2,155.4,130.2L155.4,130.2z"/>
		<polygon class="st8" points="141.1,123.1 141,123 147.5,116.2 147.6,116.4 		"/>
		<polygon class="st8" points="151.4,119.8 137.2,119.8 137.2,119.6 151.4,119.6 		"/>
		<polygon class="st8" points="144.9,119.7 144.9,119 143.6,119.7 143.7,120.3 		"/>
		<polygon class="st8" points="134,130.5 133.8,130.3 140.4,123.5 140.6,123.7 		"/>
		<polygon class="st8" points="144.3,127.1 130.1,127.1 130.1,126.9 144.3,126.9 		"/>
		<polygon class="st8" points="137.8,127 137.8,126.4 136.6,127 136.6,127.6 		"/>
		
			<rect x="147.1" y="126.9" transform="matrix(0.6928 -0.7212 0.7212 0.6928 -44.9957 148.4134)" class="st8" width="9.2" height="0.2"/>
		<polygon class="st8" points="159,127.1 144.4,127.1 144.3,126.9 159,126.9 		"/>
		<polygon class="st8" points="152.3,127 152.3,126.4 151,127 151.1,127.6 		"/>
		
			<rect x="153.9" y="119.6" transform="matrix(0.6915 -0.7224 0.7224 0.6915 -37.5181 151.576)" class="st8" width="9.5" height="0.2"/>
		<polygon class="st8" points="165.9,119.8 151.5,119.8 151.5,119.6 165.9,119.6 		"/>
		<polygon class="st8" points="159.4,119.7 159.3,119.1 158.1,119.7 158.1,120.4 		"/>
	</g>
	<g>
		<path class="st30" d="M253.3,134.5v0.5c0,0.6-0.7,0.5-1.1,0.5s-1,0-1-0.6v-0.5l0.1-17.4h1.8L253.3,134.5z"/>
		<path class="st30" d="M256.7,135.7h-9c0-0.7,2-1.2,4.5-1.2S256.7,135,256.7,135.7z"/>
		<path class="st5" d="M251.3,117.1h0.9v18.6h-4.5c0-0.1,0.1-0.3,0.3-0.4c0.1-0.1,0.2-0.1,0.3-0.2c0.7-0.3,1.4-0.5,2.2-0.6
			c0.2,0,0.5-0.1,0.7-0.1L251.3,117.1z"/>
		<path class="st9" d="M262.2,124L262.2,124c0,0.2,0,0.3-0.1,0.3l-0.5,0.5c-0.1,0.1-0.2,0.1-0.3,0.1h-29.1c-0.2,0-0.4-0.2-0.4-0.4
			v-0.2c0-0.2,0.2-0.4,0.4-0.4L262.2,124z"/>
		<path class="st9" d="M275.5,110.1v0.3c0,0.1,0,0.2-0.1,0.3l-13.7,14.2c-0.1,0.1-0.2,0.1-0.3,0.1h-0.3c-0.1,0-0.2,0-0.3-0.1l0,0
			c-0.1-0.1-0.1-0.4,0-0.5l0.3-0.3l13.7-14.2c0.1-0.1,0.4-0.1,0.5,0C275.5,109.9,275.5,110,275.5,110.1z"/>
		<path class="st28" d="M274.7,109.2h-28.3c-0.1,0-0.2,0-0.2,0.1l-13.6,14.2c-0.1,0.1-0.1,0.3,0,0.5c0.1,0.1,0.1,0.1,0.2,0.1H261
			c0.1,0,0.2,0,0.2-0.1l13.6-14.2c0.1-0.1,0.1-0.3,0-0.5C274.8,109.2,274.8,109.2,274.7,109.2z"/>
		<polygon class="st29" points="239.4,116.5 246.2,109.5 260.3,109.5 253.5,116.5 		"/>
		<polygon class="st29" points="232.4,123.8 239.2,116.8 253.3,116.8 246.5,123.8 		"/>
		<polygon class="st29" points="253.8,116.5 260.6,109.5 274.9,109.5 268.2,116.5 		"/>
		<polygon class="st29" points="246.8,123.8 253.6,116.8 267.9,116.8 261.2,123.8 		"/>
		<path class="st8" d="M275,109.6c0.1-0.1,0.1-0.3,0-0.4c0,0-0.1-0.1-0.2-0.1h-28.5c-0.1,0-0.1,0-0.2,0.1l-7.2,7.5l0,0l-6.6,6.8
			c-0.1,0.1-0.1,0.3,0,0.4c0,0,0.1,0.1,0.2,0.1h28.5c0.1,0,0.1,0,0.2-0.1l7.2-7.5l0,0L275,109.6z M274,110.2l-5.7,5.9
			c0,0.1-0.1,0.1-0.2,0.1H255c-0.1,0-0.3-0.1-0.3-0.3c0-0.1,0-0.1,0.1-0.2l5.7-5.9c0.1-0.1,0.1-0.1,0.2-0.1h13.1
			c0.1,0,0.3,0.1,0.3,0.3C274,110.1,274,110.1,274,110.2L274,110.2z M246.3,109.7h12.8c0.1,0,0.3,0.1,0.3,0.3c0,0.1,0,0.1-0.1,0.2
			l-5.7,5.9c0,0.1-0.1,0.1-0.2,0.1h-12.8c-0.1,0-0.3-0.1-0.3-0.3c0-0.1,0-0.1,0.1-0.2l5.7-5.9C246.2,109.8,246.2,109.7,246.3,109.7
			L246.3,109.7z M233.4,123l5.7-5.9c0.1-0.1,0.1-0.1,0.2-0.1h12.8c0.1,0,0.3,0.1,0.3,0.3c0,0.1,0,0.1-0.1,0.2l-5.7,5.9
			c-0.1,0.1-0.1,0.1-0.2,0.1h-12.8c-0.1,0-0.3-0.1-0.3-0.3C233.3,123.2,233.3,123.1,233.4,123z M261,123.5H248
			c-0.1,0-0.3-0.1-0.3-0.3c0-0.1,0-0.1,0.1-0.2l5.7-5.9c0-0.1,0.1-0.1,0.2-0.1h13.1c0.1,0,0.3,0.1,0.3,0.3c0,0.1,0,0.1-0.1,0.2
			l-5.7,5.9C261.2,123.5,261.1,123.5,261,123.5L261,123.5z"/>
		<polygon class="st8" points="274.9,109.8 274.8,109.2 275.5,109.2 		"/>
		<polygon class="st8" points="246.8,116.4 246.6,116.3 253.2,109.5 253.3,109.6 		"/>
		<polygon class="st8" points="257.1,113 242.9,113 242.9,112.8 257.1,112.8 		"/>
		<polygon class="st8" points="250.6,112.9 250.6,112.3 249.3,112.9 249.3,113.6 		"/>
		<polygon class="st8" points="239.6,123.7 239.5,123.6 246.1,116.8 246.2,116.9 		"/>
		<polygon class="st8" points="250,120.3 235.7,120.3 235.7,120.2 250,120.2 		"/>
		<polygon class="st8" points="243.5,120.3 243.5,119.6 242.2,120.3 242.2,120.9 		"/>
		
			<rect x="252.7" y="120.2" transform="matrix(0.6928 -0.7212 0.7212 0.6928 -7.6638 222.5423)" class="st8" width="9.2" height="0.2"/>
		<polygon class="st8" points="264.7,120.3 250,120.3 250,120.2 264.7,120.2 		"/>
		<polygon class="st8" points="258,120.3 258,119.6 256.7,120.3 256.7,120.9 		"/>
		
			<rect x="259.6" y="112.9" transform="matrix(0.6915 -0.7224 0.7224 0.6915 -4.355322e-02 225.8157)" class="st8" width="9.5" height="0.2"/>
		<polygon class="st8" points="271.6,113.1 257.2,113.1 257.2,112.9 271.6,112.9 		"/>
		<polygon class="st8" points="265,113 265,112.3 263.7,113 263.8,113.6 		"/>
		<polygon class="st9" points="275.5,109.2 275.5,110.1 274.8,109.9 		"/>
	</g>
	<g>
		<path class="st30" d="M47.6,124.4v0.5c0,0.6-0.7,0.5-1.1,0.5s-1,0-1-0.6v-0.5l0.1-17.4h1.8L47.6,124.4z"/>
		<path class="st30" d="M51.1,125.6h-9c0-0.7,2-1.2,4.5-1.2S51.1,124.9,51.1,125.6z"/>
		<path class="st5" d="M45.6,107h0.9v18.6H42c0-0.1,0.1-0.3,0.3-0.4c0.1-0.1,0.2-0.1,0.3-0.2c0.7-0.3,1.4-0.5,2.2-0.6
			c0.2,0,0.5-0.1,0.7-0.1L45.6,107z"/>
		<path class="st9" d="M56.6,113.9L56.6,113.9c0,0.2,0,0.3-0.1,0.3l-0.5,0.5c-0.1,0.1-0.2,0.1-0.3,0.1H26.6c-0.2,0-0.4-0.2-0.4-0.4
			v-0.2c0-0.2,0.2-0.4,0.4-0.4L56.6,113.9z"/>
		<path class="st9" d="M69.9,99.9v0.3c0,0.1,0,0.2-0.1,0.3L56,114.7c-0.1,0.1-0.2,0.1-0.3,0.1h-0.3c-0.1,0-0.2,0-0.3-0.1l0,0
			c-0.1-0.1-0.1-0.4,0-0.5l0.3-0.3l13.7-14.2c0.2-0.1,0.4-0.1,0.5,0C69.8,99.8,69.8,99.8,69.9,99.9z"/>
		<path class="st28" d="M69,99.1H40.7c-0.1,0-0.2,0-0.2,0.1l-13.6,14.2c-0.1,0.1-0.1,0.3,0,0.5c0.1,0.1,0.1,0.1,0.2,0.1h28.3
			c0.1,0,0.2,0,0.2-0.1l13.6-14.2c0.1-0.1,0.1-0.3,0-0.5C69.2,99.1,69.1,99.1,69,99.1z"/>
		<polygon class="st29" points="33.8,106.4 40.6,99.3 54.7,99.3 47.9,106.4 		"/>
		<polygon class="st29" points="26.8,113.6 33.5,106.6 47.6,106.6 40.9,113.6 		"/>
		<polygon class="st29" points="48.2,106.4 54.9,99.3 69.3,99.3 62.5,106.4 		"/>
		<polygon class="st29" points="41.2,113.6 47.9,106.6 62.3,106.6 55.5,113.6 		"/>
		<path class="st8" d="M69.4,99.5c0.1-0.1,0.1-0.3,0-0.4c0,0-0.1-0.1-0.2-0.1H40.7c-0.1,0-0.1,0-0.2,0.1l-7.2,7.5l0,0l-6.6,6.8
			c-0.1,0.1-0.1,0.3,0,0.4c0,0,0.1,0.1,0.2,0.1h28.5c0.1,0,0.1,0,0.2-0.1l7.2-7.5l0,0L69.4,99.5z M68.3,100.1l-5.7,5.9
			c0,0.1-0.1,0.1-0.2,0.1H49.3c-0.1,0-0.3-0.1-0.3-0.3c0-0.1,0-0.1,0.1-0.2l5.7-5.9c0.1-0.1,0.1-0.1,0.2-0.1h13.1
			c0.1,0,0.3,0.1,0.3,0.3C68.4,99.9,68.4,100,68.3,100.1L68.3,100.1z M40.7,99.6h12.8c0.1,0,0.3,0.1,0.3,0.3c0,0.1,0,0.1-0.1,0.2
			L48,106c0,0.1-0.1,0.1-0.2,0.1H35c-0.1,0-0.3-0.1-0.3-0.3c0-0.1,0-0.1,0.1-0.2l5.7-5.9C40.5,99.6,40.6,99.6,40.7,99.6L40.7,99.6z
			 M27.7,112.9l5.7-5.9c0.1-0.1,0.1-0.1,0.2-0.1h12.8c0.1,0,0.3,0.1,0.3,0.3c0,0.1,0,0.1-0.1,0.2l-5.7,5.9c-0.1,0.1-0.1,0.1-0.2,0.1
			H27.9c-0.1,0-0.3-0.1-0.3-0.3C27.7,113,27.7,113,27.7,112.9z M55.4,113.4H42.3c-0.1,0-0.3-0.1-0.3-0.3c0-0.1,0-0.1,0.1-0.2
			l5.7-5.9c0-0.1,0.1-0.1,0.2-0.1h13.1c0.1,0,0.3,0.1,0.3,0.3c0,0.1,0,0.1-0.1,0.2l-5.7,5.9C55.5,113.3,55.5,113.4,55.4,113.4
			L55.4,113.4z"/>
		<polygon class="st8" points="26.7,113.4 26.2,113.9 27,113.9 		"/>
		
			<rect x="39.6" y="102.7" transform="matrix(0.6945 -0.7195 0.7195 0.6945 -60.4232 63.2856)" class="st8" width="9.4" height="0.2"/>
		<polygon class="st8" points="51.4,102.9 37.2,102.9 37.2,102.7 51.4,102.7 		"/>
		<polygon class="st8" points="45,102.8 44.9,102.2 43.7,102.8 43.7,103.5 		"/>
		<polygon class="st8" points="34,113.6 33.9,113.5 40.4,106.7 40.6,106.8 		"/>
		<polygon class="st8" points="44.3,110.2 30.1,110.2 30.1,110 44.3,110 		"/>
		<polygon class="st8" points="37.9,110.1 37.8,109.5 36.6,110.1 36.6,110.8 		"/>
		
			<rect x="47.1" y="110" transform="matrix(0.6928 -0.7212 0.7212 0.6928 -63.5425 71.1232)" class="st8" width="9.2" height="0.2"/>
		<polygon class="st8" points="59.1,110.2 44.4,110.2 44.4,110 59,110 		"/>
		<polygon class="st8" points="52.3,110.1 52.3,109.5 51.1,110.1 51.1,110.8 		"/>
		
			<rect x="54" y="102.7" transform="matrix(0.6915 -0.7224 0.7224 0.6915 -56.1713 74.1441)" class="st8" width="9.5" height="0.2"/>
		<polygon class="st8" points="65.9,102.9 51.5,102.9 51.5,102.8 65.9,102.8 		"/>
		<polygon class="st8" points="59.4,102.8 59.3,102.2 58.1,102.8 58.1,103.5 		"/>
		<polygon class="st9" points="26.2,113.9 26.3,114.5 27,113.9 		"/>
	</g>
</g>
</svg>
