<svg id="Layer_1" data-name="Layer 1" xmlns="http://www.w3.org/2000/svg" viewBox="0 0 936 936"><defs><style>.cls-1{fill:#4949e7;}.cls-2{fill:#fff;}</style></defs><circle class="cls-1" cx="468" cy="468" r="468"/><path class="cls-2" d="M411.79,678.87a10.74,10.74,0,0,1-7.56-3.11,192,192,0,0,1,0-271.51,10.66,10.66,0,0,1,15.08,15.08,170.56,170.56,0,0,0,0,241.32,10.68,10.68,0,0,1-7.55,18.22Z" transform="translate(-72 -72)"/><path class="cls-2" d="M366.56,724.1A10.71,10.71,0,0,1,359,721a255.81,255.81,0,0,1,0-362,10.66,10.66,0,0,1,15.08,15.08,234.44,234.44,0,0,0,0,331.78,10.68,10.68,0,0,1-7.55,18.22Z" transform="translate(-72 -72)"/><path class="cls-2" d="M713.44,724.1a10.66,10.66,0,0,1-7.55-18.2,234.47,234.47,0,0,0,0-331.8A10.66,10.66,0,0,1,721,359,255.76,255.76,0,0,1,721,721a10.57,10.57,0,0,1-7.53,3.14Z" transform="translate(-72 -72)"/><path class="cls-2" d="M668.21,678.87a10.66,10.66,0,0,1-7.55-18.2,170.59,170.59,0,0,0,0-241.34,10.66,10.66,0,0,1,15.08-15.08,191.89,191.89,0,0,1,0,271.49,10.56,10.56,0,0,1-7.53,3.13Z" transform="translate(-72 -72)"/><path class="cls-2" d="M488.22,710.66a10.65,10.65,0,0,1-10.28-13.51l37.4-135.82H444a10.65,10.65,0,0,1-8.53-17.05L563.1,373.61a10.67,10.67,0,0,1,19.08,8.11L563.23,497.33H636a10.65,10.65,0,0,1,8.45,17.17l-147.78,192A10.65,10.65,0,0,1,488.22,710.66ZM465.31,540h64a10.67,10.67,0,0,1,10.29,13.51L513,650.39,614.33,518.66H550.67a10.69,10.69,0,0,1-10.54-12.4l13.93-84.95Z" transform="translate(-72 -72)"/></svg>