<svg id="Layer_1" data-name="Layer 1" xmlns="http://www.w3.org/2000/svg" viewBox="0 0 936 936"><defs><style>.cls-1{fill:#4949e7;}.cls-2{fill:#fff;}</style></defs><circle class="cls-1" cx="468" cy="468" r="468"/><path class="cls-2" d="M373.6,787.47V763.58L546.2,795a25.65,25.65,0,0,0,14.73-1.71l134-58a42.55,42.55,0,0,0-24.89-81.32,5.83,5.83,0,0,0-.71.22L565.75,691.48a8.61,8.61,0,0,1-7-.57L517.46,668h31.07a38.4,38.4,0,1,0,0-76.8h-64a8.4,8.4,0,0,0-2.86.5L363.6,633.87H296.8a8.53,8.53,0,0,0-8.53,8.53V787.47A8.53,8.53,0,0,0,296.8,796h68.27A8.53,8.53,0,0,0,373.6,787.47Zm0-139.09L486,608.27h62.52a21.33,21.33,0,1,1,0,42.66h-64a8.54,8.54,0,0,0-4.14,16l70,38.9a25.5,25.5,0,0,0,21.11,1.7l103.26-37.2a25.48,25.48,0,0,1,31.62,24.74,25.79,25.79,0,0,1-17.64,24.28L554.18,777.58a8.55,8.55,0,0,1-4.94.57L373.6,746.21Zm-17.07,105v25.6h-51.2v-128h51.2Z" transform="translate(-72 -72)"/><path class="cls-2" d="M552.8,420.53H484.53a8.53,8.53,0,0,0-8.53,8.54v68.26a8.53,8.53,0,0,0,8.53,8.54H552.8a8.53,8.53,0,0,0,8.53-8.54V429.07A8.53,8.53,0,0,0,552.8,420.53ZM510.13,488.8H493.07V471.73h17.06Zm0-34.13H493.07V437.6h17.06Zm34.14,34.13H527.2V471.73h17.07Zm0-34.13H527.2V437.6h17.07Z" transform="translate(-72 -72)"/><path class="cls-2" d="M791.73,548.53a25.6,25.6,0,0,0-25.6-25.6H749.07v-128a2.8,2.8,0,0,0-.06-.28,8.3,8.3,0,0,0-.59-2.91c-.07-.19-.2-.33-.28-.51a8.52,8.52,0,0,0-.78-1.42l-76.8-102.4c0-.06-.14-.08-.2-.15a8.48,8.48,0,0,0-6.63-3.26H527.2a8.55,8.55,0,0,0-6.83,3.41L503.73,309.6h-44.8a8.53,8.53,0,0,0-8.53,8.53v62.59l-6.83,9.09a8.47,8.47,0,0,0-.77,1.42,3.63,3.63,0,0,0-.28.51,8.09,8.09,0,0,0-.6,2.91c0,.1-.05.18-.05.28v128H424.8a25.6,25.6,0,1,0,0,51.2H766.13A25.6,25.6,0,0,0,791.73,548.53ZM689.33,437.6h-51.2a8.53,8.53,0,0,0-8.53,8.53v76.8H595.47V403.47H732V522.93H697.87v-76.8A8.53,8.53,0,0,0,689.33,437.6Zm-8.53,17.07v68.26H646.67V454.67Zm42.67-68.27H604l59.73-79.64Zm-192-85.33h115.2l-64,85.33H469.6Zm-64,25.6h23.46L467.47,358Zm-8.54,76.8H578.4V522.93H458.93ZM416.27,548.53A8.53,8.53,0,0,1,424.8,540H766.13a8.54,8.54,0,1,1,0,17.07H424.8A8.53,8.53,0,0,1,416.27,548.53Z" transform="translate(-72 -72)"/><path class="cls-2" d="M604,591.2h17.07v17.07H604Z" transform="translate(-72 -72)"/><path class="cls-2" d="M604,625.33h17.07V642.4H604Z" transform="translate(-72 -72)"/><path class="cls-2" d="M638.13,591.2H655.2v17.07H638.13Z" transform="translate(-72 -72)"/><path class="cls-2" d="M638.13,625.33H655.2V642.4H638.13Z" transform="translate(-72 -72)"/><path class="cls-2" d="M672.27,591.2h17.06v17.07H672.27Z" transform="translate(-72 -72)"/><path class="cls-2" d="M672.27,625.33h17.06V642.4H672.27Z" transform="translate(-72 -72)"/><path class="cls-2" d="M706.4,591.2h17.07v17.07H706.4Z" transform="translate(-72 -72)"/></svg>