<svg fill="white" height="512pt" viewBox="0 -26 512 512" width="512pt" xmlns="http://www.w3.org/2000/svg"><path d="m386 270c0 5.523438-4.476562 10-10 10s-10-4.476562-10-10 4.476562-10 10-10 10 4.476562 10 10zm0 0"/><path d="m482 200h-36c-36.183594 0-72.542969 11.351562-102.382812 31.960938-26.5625 18.34375-55.257813 28.039062-82.988282 28.039062h-154.628906v-30c0-5.523438-4.476562-10-10-10h-10v-21.71875c8.507812-3.019531 15.261719-9.773438 18.28125-18.28125h11.71875c5.523438 0 10-4.476562 10-10s-4.476562-10-10-10h-11.71875c-3.019531-8.507812-9.773438-15.261719-18.28125-18.28125v-71.71875c0-27.570312 22.429688-50 50-50 24.5625 0 45.027344 17.808594 49.207031 41.1875-22.398437 4.949219-39.207031 24.949219-39.207031 48.8125v20c0 5.523438 4.476562 10 10 10h80c5.523438 0 10-4.476562 10-10v-20c0-24.359375-17.515625-44.695312-40.609375-49.101562-4.480469-34.3125-33.878906-60.898438-69.390625-60.898438-38.597656 0-70 31.402344-70 70v71.71875c-8.507812 3.019531-15.261719 9.773438-18.28125 18.28125h-11.71875c-5.523438 0-10 4.476562-10 10s4.476562 10 10 10h11.71875c3.019531 8.507812 9.773438 15.261719 18.28125 18.28125v21.71875h-10c-5.523438 0-10 4.476562-10 10v30h-16c-16.542969 0-30 13.457031-30 30s13.457031 30 30 30h4.167969l23.925781 83.738281c6.089844 21.296875 25.773438 36.183594 47.90625 36.261719v10c0 5.523438 4.476562 10 10 10h40c5.523438 0 10-4.476562 10-10v-10h140v10c0 5.523438 4.476562 10 10 10h40c5.523438 0 10-4.476562 10-10v-10h2.921875c20.554687 0 38.777344-12.335938 46.421875-31.425781l59.425781-148.574219h7.230469c16.542969 0 30-13.457031 30-30s-13.457031-30-30-30zm-256-90v10h-60v-10c0-16.542969 13.457031-30 30-30s30 13.457031 30 30zm-80 170h100v60h-100zm0 80h100v20h-100zm-70-200c5.515625 0 10 4.484375 10 10s-4.484375 10-10 10-10-4.484375-10-10 4.484375-10 10-10zm-10 80h20v20h-20zm-36 60c-5.515625 0-10-4.484375-10-10s4.484375-10 10-10h96v20c-14.855469 0-83.46875 0-96 0zm452-60c-12.417969 0-23.660156 0-36 0-11.992188 0-24.023438 1.574219-35.75 4.683594-5.339844 1.414062-8.519531 6.890625-7.105469 12.226562 1.414063 5.339844 6.886719 8.519532 12.226563 7.105469 10.058594-2.664063 20.363281-4.015625 30.628906-4.015625h7.230469l-56.453125 141.140625c-4.589844 11.457031-15.523438 18.859375-27.855469 18.859375h-12.921875c-5.523438 0-10 4.476562-10 10v10h-20v-10c0-5.523438-4.476562-10-10-10h-160c-5.523438 0-10 4.476562-10 10v10h-20v-10c0-5.523438-4.476562-10-10-10h-9.828125c-13.320313 0-25.183594-8.949219-28.847656-21.757812l-22.355469-78.242188h71.03125v70c0 5.523438 4.476562 10 10 10h120c5.523438 0 10-4.476562 10-10v-70.148438c27.679688-1.007812 54.628906-7.695312 80.214844-19.949218 4.980468-2.382813 7.085937-8.355469 4.699218-13.335938-2.382812-4.980468-8.355468-7.085937-13.335937-4.699218-22.863281 10.949218-46.90625 16.96875-71.578125 17.96875v-19.945313c30.097656-1.15625 60.746094-11.972656 88.984375-31.472656 26.53125-18.324219 58.855469-28.417969 91.015625-28.417969h36c5.515625 0 10 4.484375 10 10s-4.484375 10-10 10zm0 0"/></svg>