<svg id="Layer_1" data-name="Layer 1" xmlns="http://www.w3.org/2000/svg" viewBox="0 0 936 936"><defs><style>.cls-1{fill:#4949e7;}.cls-2{fill:#fff;}</style></defs><circle class="cls-1" cx="468" cy="468" r="468"/><path class="cls-2" d="M736,462.3a7.5,7.5,0,0,0,7.5-7.5V382.35a27.73,27.73,0,0,0-26.29-27.76c-88.95-4.53-136.76-40.91-157.34-62.19a27.63,27.63,0,0,0-39.68,0c-20.58,21.28-68.39,57.66-157.34,62.19a27.73,27.73,0,0,0-26.29,27.76V591.46A169.59,169.59,0,0,0,421.1,737.92l84.85,49a68.25,68.25,0,0,0,68.1,0l84.86-49a169.6,169.6,0,0,0,84.56-146.46V489.8a7.5,7.5,0,1,0-15,0V591.46a154.57,154.57,0,0,1-77.06,133.47l-84.86,49a53.22,53.22,0,0,1-53.1,0l-84.86-49a154.57,154.57,0,0,1-77.06-133.47V382.35a12.75,12.75,0,0,1,12.05-12.78c94.09-4.79,145.24-43.87,167.36-66.74a12.63,12.63,0,0,1,18.12,0c22.11,22.87,73.27,61.95,167.35,66.74a12.75,12.75,0,0,1,12.06,12.78V454.8a7.5,7.5,0,0,0,7.5,7.5Z" transform="translate(-72 -72)"/><path class="cls-2" d="M384.44,482.3a7.5,7.5,0,0,0-7.5,7.5V591.46A129.09,129.09,0,0,0,441.3,702.93l84.85,49a27.71,27.71,0,0,0,27.7,0l84.86-49a129.1,129.1,0,0,0,64.35-111.47V410a17.59,17.59,0,0,0-15.37-17.45c-67.27-8.47-111.52-34-136.81-54a17.55,17.55,0,0,0-21.77,0c-25.28,19.95-69.53,45.5-136.8,54A17.61,17.61,0,0,0,376.94,410V454.8a7.5,7.5,0,0,0,15,0V410a2.57,2.57,0,0,1,2.24-2.57c70.7-8.89,117.45-35.95,144.22-57.07a2.58,2.58,0,0,1,3.19,0c26.78,21.13,73.53,48.19,144.24,57.08a2.57,2.57,0,0,1,2.23,2.57V591.46a114.07,114.07,0,0,1-56.85,98.48l-84.86,49a12.89,12.89,0,0,1-12.7,0l-84.85-49a114.06,114.06,0,0,1-56.86-98.48V489.8a7.5,7.5,0,0,0-7.5-7.5Z" transform="translate(-72 -72)"/><path class="cls-2" d="M449.08,522.4a22.62,22.62,0,0,1,16.12,6.68l39.19,39.18a7.5,7.5,0,0,0,10.61,0l42.93-42.93a7.5,7.5,0,0,0-10.6-10.61L509.7,552.35l-33.89-33.88a37.81,37.81,0,1,0-53.46,53.47L483,632.55a37.78,37.78,0,0,0,53.46,0L657.65,511.33a37.81,37.81,0,0,0-53.46-53.47L572.08,490a7.5,7.5,0,1,0,10.61,10.61l32.11-32.12A22.8,22.8,0,1,1,647,500.72L525.81,622a22.78,22.78,0,0,1-32.24,0L433,561.33a22.81,22.81,0,0,1,16.12-38.93Z" transform="translate(-72 -72)"/></svg>