<?xml version="1.0" encoding="UTF-8" standalone="no"?>
<!DOCTYPE svg PUBLIC "-//W3C//DTD SVG 1.1//EN" "http://www.w3.org/Graphics/SVG/1.1/DTD/svg11.dtd">
<svg version="1.1" xmlns="http://www.w3.org/2000/svg" xmlns:xlink="http://www.w3.org/1999/xlink" preserveAspectRatio="xMidYMid meet" viewBox="0 0 640 640" width="440" height="440"><defs><path d="M48.32 290.62L48.32 348.66L38.67 348.66L38.67 324.5L9.65 324.5L9.65 348.66L0 348.66L0 324.5L9.65 314.78L38.67 314.78L38.67 290.62L48.32 290.62Z" id="b9jM1iQ4dQ"></path><path d="M67.83 344.34C62.83 339.31 63.32 330.6 62.82 329.08C62.82 318.84 67.13 315.34 67.61 313.81C72.39 308.78 80.37 309.33 81.78 308.83C90.51 308.83 94.12 313.33 95.49 313.83C100.47 318.84 99.99 327.57 100.49 329.1C100.49 339.33 96.16 342.84 95.68 344.37C92.46 347.72 87.75 349.4 81.54 349.38C73.31 346.36 68.74 344.68 67.83 344.34ZM87.56 340.78C89.23 336.75 89.06 330.24 89.23 329.07C89.23 321.38 87.7 318.56 87.53 317.39C86.61 314.95 84.21 313.39 81.61 313.52C79 313.39 76.62 314.98 75.74 317.43C74.65 320.05 74.07 323.97 74.07 329.12C74.07 334.27 74.64 338.15 75.77 340.83C76.65 343.32 79.05 344.93 81.68 344.81C84.32 344.93 86.72 343.28 87.56 340.78Z" id="cjVPgF700"></path><path d="M105.34 348.66L105.34 344.81C105.42 344.81 105.47 344.81 105.48 344.81C106.89 344.87 108.28 344.57 109.55 343.94C110.64 343.36 111.14 341.99 111.14 339.81C111.14 337.64 111.14 320.29 111.14 318.12C111.14 316.09 110.67 314.85 109.72 314.24C108.55 313.62 107.23 313.33 105.91 313.4C105.9 313.4 105.83 313.4 105.7 313.4L105.7 309.78L120.96 309.78L121.91 314.92C122.13 314.92 122.25 314.92 122.27 314.92C123.03 313.39 124.09 312.03 125.4 310.93C126.48 310.09 127.73 309.51 129.06 309.23C130.48 308.96 131.91 308.82 133.35 308.83C135.7 308.76 138.03 309.24 140.15 310.25C142.06 311.23 143.53 312.89 144.3 314.89C144.36 314.89 144.88 314.89 144.94 314.89C145.72 313.33 146.84 311.97 148.21 310.9C149.37 310.05 150.71 309.47 152.13 309.2C153.57 308.93 155.03 308.8 156.49 308.8C159.76 308.62 162.94 309.83 165.27 312.13C167.39 314.36 168.45 317.91 168.46 322.8C168.46 332.93 168.46 338.56 168.46 339.69C168.46 341.87 168.87 343.33 169.66 343.93C170.75 344.62 172.04 344.93 173.33 344.83C173.34 344.83 173.41 344.83 173.54 344.83L173.54 348.68L157.43 348.68C157.43 334.35 157.43 326.39 157.43 324.79C157.55 322.31 157.11 319.83 156.12 317.54C155.27 315.86 153.5 314.86 151.63 315C150.25 314.93 148.9 315.45 147.92 316.42C146.93 317.48 146.25 318.78 145.92 320.19C145.5 321.88 145.3 323.63 145.31 325.37C145.31 326.8 145.31 338.26 145.31 339.69C145.31 341.87 145.7 343.33 146.5 343.93C147.59 344.61 148.88 344.93 150.16 344.83C150.18 344.83 150.25 344.83 150.38 344.83L150.38 348.68L134.28 348.68C134.28 334.35 134.28 326.39 134.28 324.79C134.42 322.31 134 319.83 133.03 317.54C132.18 315.86 130.41 314.86 128.53 315C127.1 314.93 125.72 315.5 124.76 316.56C123.77 317.75 123.09 319.17 122.81 320.69C122.4 322.51 122.2 324.38 122.22 326.24C122.22 327.63 122.22 338.72 122.22 340.1C122.22 342.13 122.7 343.37 123.63 343.98C124.81 344.59 126.12 344.88 127.44 344.81C127.45 344.81 127.53 344.81 127.66 344.81L127.66 348.66L105.34 348.66Z" id="a371kOhTIn"></path><path d="M183.58 344.16C178.81 338.94 179.31 330.91 178.83 329.44C178.83 319.2 183.04 315.56 183.51 314.02C186.64 310.56 191.07 308.83 196.82 308.83C204.74 308.83 208.02 312.81 209.27 313.26C212.28 316.21 213.79 320.57 213.8 326.34L213.8 330.04C199.52 330.04 191.58 330.04 190 330.04C190.21 337.37 192.44 339.61 192.71 340.67C194.36 342.85 196.98 344.08 199.71 343.94C201.96 344.01 204.18 343.42 206.09 342.24C207.73 341.22 209.05 339.78 209.93 338.06C211.23 338.77 211.99 340.16 211.89 341.63C211.89 343.7 210.74 345.52 208.42 347.08C206.09 348.64 202.49 349.38 197.61 349.38C188.34 349.38 184.98 344.68 183.58 344.16ZM202.69 325.39C202.82 322.43 202.37 319.47 201.38 316.67C200.78 314.75 198.98 313.46 196.97 313.52C194.9 313.53 193.02 314.71 192.1 316.56C190.89 318.62 190.24 321.55 190.14 325.37C190.14 325.37 201.44 325.39 202.69 325.39Z" id="k28qGKBBU0"></path><path d="M231.86 348.66C223.89 322.2 219.46 307.49 218.58 304.55C218.34 303.36 217.69 302.28 216.74 301.52C215.74 300.97 214.6 300.71 213.46 300.76C213.4 300.76 213.08 300.76 212.52 300.76L212.52 296.87L236.75 296.87L236.75 300.7C235.74 300.7 235.19 300.7 235.08 300.7C230.71 300.7 231.15 303.85 230.71 304.19C230.74 304.79 230.81 305.39 230.93 305.97C231.06 306.71 231.23 307.44 231.45 308.15C231.93 309.83 235.82 323.24 236.31 324.91C236.69 326.12 237.07 327.46 237.46 328.94C237.86 330.41 238.18 331.87 238.48 333.3C238.77 334.73 238.99 335.99 239.13 337.01C239.47 335.46 239.83 334 240.22 332.64C240.62 331.29 241.02 329.87 241.46 328.48C242.09 326.41 245.29 316.06 251.03 297.42L256.33 297.42C262.34 314.05 265.67 323.29 266.34 325.14C267.57 328.54 268.3 331.25 268.52 331.92C269.47 335.3 269.73 336.65 269.86 337.18C270.2 335.44 270.62 333.35 271.13 330.91C271.63 328.47 272.22 326.08 272.76 323.76C273.15 322.19 276.24 309.63 276.62 308.07C276.76 307.49 276.91 306.79 277.05 305.96C277.17 305.36 277.24 304.76 277.27 304.15C277.38 303.14 276.97 302.14 276.18 301.5C275.1 300.92 273.88 300.65 272.66 300.74C272.55 300.74 272 300.74 271 300.74L271 296.87L289.93 296.87L289.93 300.7C289.1 300.7 288.64 300.7 288.55 300.7C287.36 300.65 286.2 301.04 285.28 301.8C284.48 302.52 283.75 304.06 283.1 306.4L271.76 348.66L263.48 348.66L251.3 314.61L240.86 348.63L231.86 348.66Z" id="ajFOBhP09"></path><path d="M291.15 348.66L291.15 344.81C291.67 344.81 291.96 344.81 292.02 344.81C292.79 344.81 293.56 344.7 294.3 344.49C295.1 344.27 295.82 343.8 296.34 343.14C296.96 342.26 297.25 341.18 297.17 340.1C297.17 337.9 297.17 320.25 297.17 318.04C297.24 317.01 296.93 315.99 296.29 315.17C295.75 314.55 295.03 314.11 294.23 313.91C293.52 313.73 292.79 313.63 292.05 313.62C291.99 313.62 291.69 313.62 291.15 313.62L291.15 309.78L308.2 309.78C308.2 327.97 308.2 338.08 308.2 340.1C308.12 341.18 308.41 342.26 309.03 343.14C309.55 343.8 310.26 344.26 311.06 344.49C311.8 344.7 312.57 344.81 313.35 344.81C313.41 344.81 313.7 344.81 314.22 344.81L314.22 348.66L291.15 348.66ZM297.96 301.98C296.74 301.05 296.07 299.56 296.18 298.02C296.05 296.47 296.72 294.97 297.96 294.03C299.26 293.18 300.78 292.75 302.32 292.8C303.87 292.77 305.39 293.19 306.69 294.03C307.98 294.93 308.71 296.45 308.59 298.02C308.7 299.57 308 301.07 306.74 301.98C305.43 302.85 303.88 303.29 302.3 303.25C300.77 303.29 299.25 302.85 297.96 301.98Z" id="eC8Tzs8Bo"></path><path d="M316.88 348.66L316.88 344.81C316.97 344.81 317.01 344.81 317.02 344.81C318.43 344.87 319.83 344.57 321.09 343.94C322.18 343.36 322.68 341.99 322.68 339.81C322.68 337.66 322.68 320.48 322.68 318.34C322.68 316.31 322.21 315.01 321.26 314.46C320.09 313.84 318.78 313.55 317.46 313.62C317.44 313.62 317.37 313.62 317.24 313.62L317.24 309.78L332.51 309.78L333.46 314.92C333.67 314.92 333.79 314.92 333.82 314.92C334.57 313.39 335.64 312.03 336.95 310.93C338.02 310.09 339.27 309.51 340.61 309.23C342.02 308.96 343.46 308.82 344.89 308.83C348.16 308.65 351.35 309.86 353.67 312.17C355.8 314.39 356.87 317.94 356.87 322.83C356.87 332.94 356.87 338.56 356.87 339.69C356.87 341.87 357.26 343.33 358.06 343.93C359.15 344.61 360.43 344.93 361.72 344.83C361.73 344.83 361.81 344.83 361.94 344.83L361.94 348.68L345.82 348.68C345.82 334.35 345.82 326.39 345.82 324.79C345.96 322.31 345.54 319.83 344.58 317.54C343.73 315.86 341.95 314.86 340.07 315C338.65 314.93 337.26 315.5 336.3 316.56C335.31 317.75 334.64 319.17 334.35 320.69C333.95 322.51 333.75 324.38 333.76 326.24C333.76 327.63 333.76 338.72 333.76 340.1C333.76 342.13 334.24 343.37 335.18 343.98C336.35 344.59 337.67 344.88 338.98 344.81C339 344.81 339.07 344.81 339.2 344.81L339.2 348.66L316.88 348.66Z" id="dhGrkLxS2"></path><path d="M371.04 344.56C367.24 339.74 367.58 330.82 367.19 329.3C367.19 318.78 370.63 315.39 371.01 313.84C374.83 308.9 380.77 309.41 381.85 308.92C384.19 308.82 386.51 309.4 388.52 310.58C390.2 311.63 391.61 313.04 392.66 314.72C392.71 314.72 393.12 314.72 393.17 314.72C392.97 313.36 392.83 311.84 392.73 310.15C392.63 308.46 392.56 306.97 392.56 305.88C392.56 305.48 392.56 302.27 392.56 301.87C392.56 299.89 391.98 298.6 390.81 298.13C389.5 297.59 388.1 297.33 386.68 297.37C386.64 297.37 386.45 297.37 386.1 297.37L386.1 293.53L403.55 293.53C403.55 321.26 403.55 336.66 403.55 339.74C403.46 340.9 403.75 342.05 404.39 343.01C404.94 343.72 405.71 344.22 406.57 344.43C407.54 344.68 408.54 344.8 409.55 344.79C409.57 344.79 409.66 344.79 409.84 344.79L409.84 348.64L395.83 348.64L393.78 342.96C393.39 342.96 393.17 342.96 393.12 342.96C392.11 344.84 390.63 346.44 388.84 347.6C386.76 348.85 384.37 349.47 381.95 349.38C374.85 349.38 372.13 345.04 371.04 344.56ZM390.94 340.27C392.03 337.83 392.55 334.12 392.55 329.13C392.55 321.96 391.1 319.21 390.94 318.11C390.06 315.66 387.67 314.09 385.08 314.26C381.45 314.26 380.41 317.72 379.89 318.11C378.84 320.68 378.38 324.42 378.38 329.22C378.38 334.02 378.89 337.85 379.94 340.28C380.67 342.49 382.75 343.97 385.08 343.94C387.62 344.12 390 342.64 390.94 340.27Z" id="aYwRmka2y"></path><path d="M419.32 344.34C414.33 339.31 414.81 330.6 414.31 329.08C414.31 318.84 418.62 315.34 419.1 313.81C423.89 308.78 431.86 309.31 433.27 308.81C442 308.81 445.61 313.31 446.98 313.81C451.96 318.82 451.49 327.55 451.99 329.08C451.99 339.31 447.65 342.82 447.17 344.34C443.95 347.7 439.24 349.38 433.02 349.38C424.8 346.36 420.23 344.68 419.32 344.34ZM439.04 340.78C440.71 336.75 440.54 330.24 440.71 329.07C440.71 321.38 439.18 318.56 439.01 317.39C438.09 314.95 435.7 313.39 433.1 313.52C430.49 313.38 428.1 314.97 427.22 317.43C425.55 321.36 425.72 327.95 425.55 329.12C425.55 336.89 427.09 339.61 427.26 340.78C428.12 343.28 430.52 344.92 433.17 344.81C435.81 344.93 438.2 343.28 439.04 340.78Z" id="b1J6ouSrZX"></path><path d="M469.8 348.66C464.23 329.94 461.13 319.54 460.51 317.46C460.21 316.26 459.54 315.18 458.59 314.38C457.6 313.81 456.47 313.54 455.32 313.62C455.31 313.62 455.24 313.62 455.11 313.62L455.11 309.78L476.36 309.78L476.36 313.62C475.8 313.62 475.49 313.62 475.43 313.62C474.31 313.54 473.18 313.76 472.16 314.24C471.37 314.78 470.94 315.72 471.07 316.67C471.08 317.16 471.14 317.64 471.24 318.12C471.36 318.7 471.51 319.21 471.65 319.79C471.92 320.73 474.07 328.28 474.34 329.22C475.06 331.84 475.52 334.05 475.65 334.58C476.03 336.43 476.33 337.94 476.52 339.15C476.54 339.15 476.72 339.15 476.74 339.15C476.98 337.94 477.26 336.7 477.61 335.42C477.96 334.15 478.43 332.6 479.06 330.81C479.56 329.43 482.02 322.52 486.46 310.09L491.18 310.09C495.47 322.96 497.85 330.11 498.33 331.54C498.83 332.99 499.25 334.47 499.6 335.97C499.86 337.18 500.06 338.24 500.22 339.15C500.24 339.15 500.41 339.15 500.43 339.15C500.79 337.34 501.11 336.09 501.19 335.75C501.46 334.66 501.85 333.23 502.39 331.39C502.71 330.33 505.26 321.86 505.58 320.8C505.78 320.15 505.94 319.48 506.05 318.81C506.16 318.27 506.22 317.72 506.24 317.17C506.24 314.8 504.63 313.62 501.45 313.62C501.41 313.62 501.24 313.62 500.94 313.62L500.94 309.78L517.55 309.78L517.55 313.62C516.99 313.62 516.67 313.62 516.61 313.62C515.44 313.55 514.29 313.94 513.41 314.71C512.35 316.07 511.58 317.63 511.16 319.31C510.54 321.27 507.42 331.06 501.81 348.69L493.97 348.69L486.06 324.61L477.72 348.69L469.8 348.66Z" id="cktBevURS"></path><path d="M522.99 346.95C520.92 345.63 519.66 343.35 519.65 340.9C519.54 339.61 519.96 338.33 520.8 337.34C521.56 336.58 522.52 336.04 523.56 335.78C524.49 335.54 525.43 335.4 526.39 335.38C526.26 337.93 527.03 340.45 528.57 342.49C529.94 344.22 532.06 345.19 534.26 345.11C536.77 345.11 538.62 344.63 539.71 343.66C540.79 342.82 541.41 341.53 541.41 340.17C541.45 338.64 540.75 337.18 539.53 336.25C537.37 334.79 534.99 333.67 532.49 332.92C529.21 331.91 526.15 330.27 523.5 328.1C521.38 326.14 520.24 323.34 520.38 320.46C520.38 314.65 524.24 312.61 524.66 311.74C528.95 308.83 534.84 309.16 535.97 308.87C538.47 308.79 540.96 309.12 543.34 309.85C544.91 310.32 546.31 311.21 547.4 312.43C548.2 313.33 548.66 314.49 548.68 315.7C548.76 317.15 548.12 318.55 546.96 319.43C545.26 320.7 541.84 320.58 541.27 320.7C541.39 318.7 540.83 316.72 539.68 315.08C538.49 313.69 536.71 312.95 534.89 313.08C533.45 313.05 532.03 313.42 530.79 314.17C529.62 314.89 528.94 316.18 529.02 317.55C529 318.51 529.29 319.45 529.84 320.23C530.66 321.21 531.69 321.98 532.85 322.48C534.83 323.42 536.87 324.25 538.95 324.95C541.86 325.87 544.56 327.35 546.9 329.31C548.96 331.15 550.09 333.82 549.97 336.59C550.16 340.2 548.63 343.69 545.84 345.99C543.08 348.25 539.21 349.38 534.23 349.38C527.48 347.92 523.73 347.11 522.99 346.95Z" id="b1jWUuqOOX"></path><path d="M565.94 348.66L565.94 344.81C567.15 344.81 567.83 344.81 567.97 344.81C569.42 344.86 570.87 344.55 572.17 343.91C573.34 343.31 573.92 341.87 573.92 339.55C573.92 339.25 573.92 337.79 573.92 335.16L553.81 335.16L553.81 330.75L574.41 296.87L584.47 296.87L584.47 330.38L592.02 330.38L592.02 335.16L584.47 335.16C584.47 337.82 584.47 339.29 584.47 339.59C584.47 341.87 585.05 343.31 586.22 343.95C587.53 344.59 588.97 344.9 590.43 344.86C590.49 344.86 590.8 344.86 591.37 344.86L591.37 348.71L565.94 348.66ZM558.9 330.38L573.92 330.38C573.92 322.76 573.92 318.53 573.92 317.68C573.92 314.55 574.02 311.55 574.03 310.87C574.14 307.18 574.38 304.47 574.42 303.76C574.18 304.34 573.81 305.11 573.33 306.08C572.85 307.05 572.24 308.07 571.66 309.16C571.08 310.25 570.5 311.25 569.96 312.17C569.43 313.08 569.02 313.77 568.73 314.2C567.42 316.36 564.14 321.75 558.9 330.38Z" id="d18M9F6Uc"></path><path d="M603.42 345.87C601.37 343.53 600.36 339.9 600.36 334.97C600.36 325.25 600.36 319.85 600.36 318.77C600.36 316.65 599.98 315.25 599.21 314.6C598.1 313.85 596.77 313.5 595.43 313.62C595.42 313.62 595.37 313.62 595.28 313.62L595.28 309.78L611.41 309.78C611.41 323.71 611.41 331.44 611.41 332.99C611.32 335.52 611.71 338.05 612.58 340.43C613.26 342.22 615.03 343.35 616.94 343.22C619.06 343.34 621.05 342.16 621.98 340.24C623.13 337.72 623.66 334.97 623.53 332.2C623.53 330.8 623.53 319.65 623.53 318.26C623.53 316.19 623.02 314.89 621.98 314.38C620.83 313.85 619.57 313.59 618.31 313.62C618.3 313.62 618.23 313.62 618.1 313.62L618.1 309.78L634.57 309.78C634.57 328.06 634.57 338.21 634.57 340.24C634.57 342.42 635.03 343.67 635.94 344.13C637.04 344.62 638.23 344.86 639.43 344.81C639.47 344.81 639.66 344.81 640.01 344.81L640.01 348.66L625.56 348.66L623.96 343.5C623.74 343.5 623.62 343.5 623.6 343.5C622.53 345.68 620.72 347.39 618.49 348.34C616.45 349.05 614.3 349.4 612.14 349.38C606.48 349.38 604.29 346.22 603.42 345.87Z" id="f2PFs6zTx"></path></defs><g><g><g><use xlink:href="#b9jM1iQ4dQ" opacity="1" fill="#292929" fill-opacity="1"></use><g><use xlink:href="#b9jM1iQ4dQ" opacity="1" fill-opacity="0" stroke="#000000" stroke-width="1" stroke-opacity="0"></use></g></g><g><use xlink:href="#cjVPgF700" opacity="1" fill="#292929" fill-opacity="1"></use><g><use xlink:href="#cjVPgF700" opacity="1" fill-opacity="0" stroke="#000000" stroke-width="1" stroke-opacity="0"></use></g></g><g><use xlink:href="#a371kOhTIn" opacity="1" fill="#292929" fill-opacity="1"></use><g><use xlink:href="#a371kOhTIn" opacity="1" fill-opacity="0" stroke="#000000" stroke-width="1" stroke-opacity="0"></use></g></g><g><use xlink:href="#k28qGKBBU0" opacity="1" fill="#292929" fill-opacity="1"></use><g><use xlink:href="#k28qGKBBU0" opacity="1" fill-opacity="0" stroke="#000000" stroke-width="1" stroke-opacity="0"></use></g></g><g><use xlink:href="#ajFOBhP09" opacity="1" fill="#292929" fill-opacity="1"></use><g><use xlink:href="#ajFOBhP09" opacity="1" fill-opacity="0" stroke="#000000" stroke-width="1" stroke-opacity="0"></use></g></g><g><use xlink:href="#eC8Tzs8Bo" opacity="1" fill="#292929" fill-opacity="1"></use><g><use xlink:href="#eC8Tzs8Bo" opacity="1" fill-opacity="0" stroke="#000000" stroke-width="1" stroke-opacity="0"></use></g></g><g><use xlink:href="#dhGrkLxS2" opacity="1" fill="#292929" fill-opacity="1"></use><g><use xlink:href="#dhGrkLxS2" opacity="1" fill-opacity="0" stroke="#000000" stroke-width="1" stroke-opacity="0"></use></g></g><g><use xlink:href="#aYwRmka2y" opacity="1" fill="#292929" fill-opacity="1"></use><g><use xlink:href="#aYwRmka2y" opacity="1" fill-opacity="0" stroke="#000000" stroke-width="1" stroke-opacity="0"></use></g></g><g><use xlink:href="#b1J6ouSrZX" opacity="1" fill="#292929" fill-opacity="1"></use><g><use xlink:href="#b1J6ouSrZX" opacity="1" fill-opacity="0" stroke="#000000" stroke-width="1" stroke-opacity="0"></use></g></g><g><use xlink:href="#cktBevURS" opacity="1" fill="#292929" fill-opacity="1"></use><g><use xlink:href="#cktBevURS" opacity="1" fill-opacity="0" stroke="#000000" stroke-width="1" stroke-opacity="0"></use></g></g><g><use xlink:href="#b1jWUuqOOX" opacity="1" fill="#292929" fill-opacity="1"></use><g><use xlink:href="#b1jWUuqOOX" opacity="1" fill-opacity="0" stroke="#000000" stroke-width="1" stroke-opacity="0"></use></g></g><g><use xlink:href="#d18M9F6Uc" opacity="1" fill="#292929" fill-opacity="1"></use><g><use xlink:href="#d18M9F6Uc" opacity="1" fill-opacity="0" stroke="#000000" stroke-width="1" stroke-opacity="0"></use></g></g><g><use xlink:href="#f2PFs6zTx" opacity="1" fill="#292929" fill-opacity="1"></use><g><use xlink:href="#f2PFs6zTx" opacity="1" fill-opacity="0" stroke="#000000" stroke-width="1" stroke-opacity="0"></use></g></g></g></g></svg>