<svg xmlns="http://www.w3.org/2000/svg" viewBox="0 0 577.68 69.02"><defs><style>.cls-1{fill:#fff;}</style></defs><title>Asset 9</title><g id="Layer_2" data-name="Layer 2"><g id="Layer_1-2" data-name="Layer 1"><path class="cls-1" d="M44.2,0V53.09H35.37V31H8.83v22.1H0V31L8.83,22.1H35.37V0Z"/><path class="cls-1" d="M74.59,53.76q-8,0-12.54-4.61t-4.58-14q0-9.36,4.38-13.94t12.94-4.58q8,0,12.54,4.58t4.58,13.94q0,9.34-4.41,14T74.59,53.76Zm.13-4.18a5.43,5.43,0,0,0,5.38-3.69q1.53-3.68,1.52-10.71T80.07,24.49a5.48,5.48,0,0,0-5.41-3.58,5.42,5.42,0,0,0-5.38,3.58q-1.53,3.59-1.52,10.69t1.55,10.71A5.49,5.49,0,0,0,74.72,49.58Z"/><path class="cls-1" d="M96.36,53.09V49.58h.13a7.76,7.76,0,0,0,3.72-.8c1-.53,1.46-1.79,1.46-3.78V25.16c0-1.86-.44-3.05-1.3-3.55a6.8,6.8,0,0,0-3.48-.77h-.2V17.52h13.93l.87,4.72h.33a11.09,11.09,0,0,1,2.89-3.65A8,8,0,0,1,118.06,17a19.09,19.09,0,0,1,3.91-.37A13.44,13.44,0,0,1,128.21,18,7.89,7.89,0,0,1,132,22.24h.6a10.42,10.42,0,0,1,3-3.65A8.79,8.79,0,0,1,139.16,17a20.75,20.75,0,0,1,4-.37,10.6,10.6,0,0,1,8,3.05q2.93,3.06,2.92,9.76v15.4c0,2,.37,3.33,1.1,3.88a5.54,5.54,0,0,0,3.35.83h.2v3.51H144V31.26a14.8,14.8,0,0,0-1.2-6.64,4.26,4.26,0,0,0-4.11-2.32,4.49,4.49,0,0,0-3.39,1.3,7.5,7.5,0,0,0-1.82,3.45,18.55,18.55,0,0,0-.57,4.74V44.87c0,2,.37,3.33,1.1,3.88a5.54,5.54,0,0,0,3.35.83h.2v3.51H122.84V31.26a14.8,14.8,0,0,0-1.2-6.64,4.26,4.26,0,0,0-4.11-2.32,4.37,4.37,0,0,0-3.45,1.43,8.34,8.34,0,0,0-1.8,3.78,23.3,23.3,0,0,0-.53,5.08V45.26c0,1.86.43,3.05,1.3,3.55a6.8,6.8,0,0,0,3.48.77h.2v3.51Z"/><path class="cls-1" d="M180.77,53.76q-8.49,0-12.84-4.78c-2.9-3.19-4.35-7.67-4.35-13.47q0-9.36,4.28-14.1c2.86-3.17,6.91-4.75,12.18-4.75q7.23,0,11.38,4.05t4.15,11.95V36H173.8q.19,6.7,2.49,9.72a7.56,7.56,0,0,0,6.4,3,10.45,10.45,0,0,0,5.84-1.56,9.74,9.74,0,0,0,3.52-3.81,3.41,3.41,0,0,1,1.79,3.25q0,2.85-3.18,5T180.77,53.76Zm-6.84-22h11.48a21.17,21.17,0,0,0-1.19-8A4.15,4.15,0,0,0,180.17,21a5,5,0,0,0-4.44,2.78Q174.07,26.55,173.93,31.79Z"/><path class="cls-1" d="M215.88,53.76a24.71,24.71,0,0,1-9.36-1.43,10.13,10.13,0,0,1-4.78-3.58,7.86,7.86,0,0,1-1.39-4.28,5.71,5.71,0,0,1,1.06-3.62,5.86,5.86,0,0,1,2.79-2,11.26,11.26,0,0,1,3.65-.59q0,5.64,2.55,8.56a8.31,8.31,0,0,0,6.54,2.92,8.49,8.49,0,0,0,6-2.06,6.73,6.73,0,0,0,2.19-5.11,6.37,6.37,0,0,0-2.76-5.41,41.49,41.49,0,0,0-8.33-4.35,32.86,32.86,0,0,1-7.36-4,12.37,12.37,0,0,1-3.89-4.65,13.9,13.9,0,0,1-1.16-5.8,11.81,11.81,0,0,1,2.13-7,14,14,0,0,1,5.77-4.64,19.93,19.93,0,0,1,8.36-1.66q7.31,0,10.72,2.22t3.42,5.48A4.78,4.78,0,0,1,230,16.66c-1.37,1.06-3.41,1.59-6.1,1.59a13,13,0,0,0-.7-4A9.19,9.19,0,0,0,221,10.62a5.56,5.56,0,0,0-4.11-1.52,7.13,7.13,0,0,0-4.64,1.56,5.48,5.48,0,0,0-1.93,4.54,7.13,7.13,0,0,0,.86,3.49,9.51,9.51,0,0,0,3.26,3.11,41.28,41.28,0,0,0,6.83,3.36c4.56,1.85,7.81,3.86,9.76,6a11.6,11.6,0,0,1,2.92,8.07,13.1,13.1,0,0,1-2.23,7.56,14.88,14.88,0,0,1-6.27,5.11A22.69,22.69,0,0,1,215.88,53.76Z"/><path class="cls-1" d="M257.48,53.76c-5.3,0-9.49-1.54-12.54-4.61s-4.58-7.74-4.58-14,1.46-10.89,4.38-13.94,7.24-4.58,12.94-4.58q8,0,12.55,4.58t4.58,13.94q0,9.34-4.42,14T257.48,53.76Zm.14-4.18A5.42,5.42,0,0,0,263,45.89q1.53-3.68,1.53-10.71T263,24.49a5.48,5.48,0,0,0-5.41-3.58,5.4,5.4,0,0,0-5.37,3.58q-1.53,3.59-1.53,10.69t1.56,10.71A5.48,5.48,0,0,0,257.62,49.58Z"/><path class="cls-1" d="M279.05,53.09V49.58h.8a7.93,7.93,0,0,0,2.09-.3,3.6,3.6,0,0,0,1.86-1.23,4.38,4.38,0,0,0,.76-2.79v-35a3.84,3.84,0,0,0-.8-2.62,3.69,3.69,0,0,0-1.89-1.16,9,9,0,0,0-2-.26h-.8V2.66h15.6v42.6a4.32,4.32,0,0,0,.76,2.79,3.6,3.6,0,0,0,1.86,1.23,7.93,7.93,0,0,0,2.09.3h.8v3.51Z"/><path class="cls-1" d="M314.69,53.76a10.81,10.81,0,0,1-7.4-2.66c-2-1.77-3-4.49-3-8.16s1.23-6.24,3.68-8,6.18-2.68,11.18-2.86l5.45-.19V28.27a17.93,17.93,0,0,0-.7-5.44c-.46-1.41-1.6-2.12-3.42-2.12A3.51,3.51,0,0,0,317,22.77a12,12,0,0,0-1,5.11,17.45,17.45,0,0,1-6.71-1,3.49,3.49,0,0,1-2.25-3.45,4.72,4.72,0,0,1,1.85-3.91,12.17,12.17,0,0,1,4.95-2.16,31,31,0,0,1,6.87-.7q7,0,10.45,2.52t3.48,8.76V44.87c0,1.81.29,3.05.87,3.71a4,4,0,0,0,3.12,1h.26v3.51H326.57l-1.4-4.57h-.59a26.24,26.24,0,0,1-2.76,2.95,8.42,8.42,0,0,1-2.95,1.72A13.06,13.06,0,0,1,314.69,53.76Zm3.65-4.85a5.34,5.34,0,0,0,4.54-2.29,10.18,10.18,0,0,0,1.7-6.2v-5l-3,.2q-4,.2-5.51,2.09a8.54,8.54,0,0,0-1.52,5.48Q314.56,48.91,318.34,48.91Z"/><path class="cls-1" d="M342.36,53.09V49.58h.2a7.29,7.29,0,0,0,3.68-.83c.95-.55,1.43-1.87,1.43-4V25.55c0-1.94-.43-3.18-1.29-3.71a6.65,6.65,0,0,0-3.49-.8h-.2V17.52H356.1l1.33,5.18h.33a11,11,0,0,1,3.32-4.48c1.32-1,3.34-1.49,6-1.49q7.63,0,7.64,5.37a5.64,5.64,0,0,1-2.23,4.75,10,10,0,0,1-6.2,1.69,9.38,9.38,0,0,0-.7-4.11,2.59,2.59,0,0,0-2.55-1.4,3.55,3.55,0,0,0-2.79,1.2,7.61,7.61,0,0,0-1.59,2.95,19.14,19.14,0,0,0-.73,3.55,25.87,25.87,0,0,0-.2,2.92V45.13c0,1.95.44,3.18,1.32,3.68a6.6,6.6,0,0,0,3.32.77h2.13v3.51Z"/><path class="cls-1" d="M386,53.09V49.58h2.79a3.93,3.93,0,0,0,2.42-.73c.64-.49,1-1.68,1-3.59V9.76h-5.31q-3,0-4.11,1.26a6.11,6.11,0,0,0-1.39,3.45l-.47,4.12H376.4l.34-12.88h41.34l.33,12.88H414l-.47-4.12A6.18,6.18,0,0,0,412.11,11c-.76-.84-2.13-1.26-4.12-1.26h-5.31v35.5c0,1.91.32,3.1,1,3.59a3.93,3.93,0,0,0,2.42.73h2.79v3.51Z"/><path class="cls-1" d="M437.33,53.76q-8,0-12.55-4.61t-4.58-14q0-9.36,4.38-13.94t12.94-4.58q8,0,12.55,4.58t4.58,13.94q0,9.34-4.42,14T437.33,53.76Zm.13-4.18a5.41,5.41,0,0,0,5.37-3.69q1.53-3.68,1.53-10.71T442.8,24.49a5.48,5.48,0,0,0-5.41-3.58A5.41,5.41,0,0,0,432,24.49q-1.53,3.59-1.53,10.69t1.56,10.71A5.48,5.48,0,0,0,437.46,49.58Z"/><path class="cls-1" d="M474.36,53.76q-6.51,0-10-4.41t-3.51-14q0-9.63,3.48-14.14t9.92-4.51a11.25,11.25,0,0,1,6.11,1.52A11.89,11.89,0,0,1,484.11,22h.46c-.17-1.24-.3-2.63-.39-4.18S484,15,484,13.94V10.29q0-2.71-1.59-3.42a9.45,9.45,0,0,0-3.78-.69h-.53V2.66h16V44.93a4.84,4.84,0,0,0,.76,3,3.8,3.8,0,0,0,2,1.3,10.73,10.73,0,0,0,2.72.33h.26v3.51H487l-1.86-5.17h-.6a11.68,11.68,0,0,1-3.91,4.25A11.41,11.41,0,0,1,474.36,53.76Zm2.85-5a5.35,5.35,0,0,0,5.37-3.35c1-2.23,1.46-5.63,1.46-10.19,0-4.38-.48-7.74-1.46-10.08a5.33,5.33,0,0,0-5.37-3.52c-2.21,0-3.8,1.17-4.75,3.52S471,30.89,471,35.31s.47,7.89,1.42,10.12A4.89,4.89,0,0,0,477.21,48.78Z"/><path class="cls-1" d="M514.24,53.76a10.81,10.81,0,0,1-7.4-2.66q-3-2.66-3-8.16c0-3.58,1.23-6.24,3.68-8s6.18-2.68,11.18-2.86l5.45-.19V28.27a17.93,17.93,0,0,0-.7-5.44c-.47-1.41-1.6-2.12-3.42-2.12a3.51,3.51,0,0,0-3.48,2.06,12,12,0,0,0-1,5.11,17.45,17.45,0,0,1-6.71-1,3.49,3.49,0,0,1-2.25-3.45,4.7,4.7,0,0,1,1.86-3.91,12.06,12.06,0,0,1,4.94-2.16,31,31,0,0,1,6.87-.7q7,0,10.45,2.52t3.48,8.76V44.87c0,1.81.29,3.05.87,3.71a4,4,0,0,0,3.12,1h.26v3.51H526.12l-1.4-4.57h-.59a27.19,27.19,0,0,1-2.76,2.95,8.42,8.42,0,0,1-3,1.72A13.06,13.06,0,0,1,514.24,53.76Zm3.65-4.85a5.34,5.34,0,0,0,4.54-2.29,10.18,10.18,0,0,0,1.7-6.2v-5l-3,.2q-4,.2-5.51,2.09a8.54,8.54,0,0,0-1.52,5.48Q514.11,48.91,517.89,48.91Z"/><path class="cls-1" d="M541.05,69V65.17a16.24,16.24,0,0,0,7.43-1.46A11.28,11.28,0,0,0,553,59.6a25.9,25.9,0,0,0,2.72-6.17l-12-29.2A4.08,4.08,0,0,0,542,22a6.45,6.45,0,0,0-2.46-.56h-.26V17.52h18.91V21H558a6.68,6.68,0,0,0-2.92.53A2,2,0,0,0,554,23.5a5.08,5.08,0,0,0,.23,1.32,12.67,12.67,0,0,0,.43,1.26l4.58,12.15a43.16,43.16,0,0,1,1.33,4.11,20.47,20.47,0,0,1,.53,2.92,11,11,0,0,1,.66-3.08c.4-1.13.67-1.87.8-2.23l4.38-13a10,10,0,0,0,.47-1.66,8.77,8.77,0,0,0,.19-1.59,2,2,0,0,0-1.19-2A9,9,0,0,0,563,21h-.27V17.52h14.93V21h-.26a4.33,4.33,0,0,0-3,1.13,10.47,10.47,0,0,0-2.09,3.72l-10,27.2A69.64,69.64,0,0,1,559.07,61a15.41,15.41,0,0,1-3.62,4.85,11.75,11.75,0,0,1-5.21,2.45,38,38,0,0,1-8.06.7Z"/></g></g></svg>