<?xml version="1.0"?>
<svg xmlns="http://www.w3.org/2000/svg" id="loan" enable-background="new 0 0 300 300" height="512px" viewBox="0 0 300 300" width="512px"><g><g><path d="m134 112.855v-36.855c0-.323-.111-.609-.184-.91-1.876-11.617-24.951-17.699-47.816-17.699s-45.943 6.083-47.817 17.701c-.071.3-.183.586-.183.908v36.855c0 12.571 24.148 19.145 48 19.145s48-6.574 48-19.145zm-88-25.174c9.061 5.365 24.572 8.144 40 8.144s30.939-2.779 40-8.144v7.362c0 3.809-14.117 11.219-40 11.219s-40-7.41-40-11.219zm40-22.29c25.883 0 40 7.41 40 11.219 0 3.805-14.117 11.215-40 11.215s-40-7.41-40-11.215c0-3.809 14.117-11.219 40-11.219zm-40 47.464v-6.738c9.061 5.366 24.572 8.145 40 8.145s30.939-2.779 40-8.145v6.738c0 3.782-14.117 11.145-40 11.145s-40-7.363-40-11.145z" data-original="#000000" class="active-path" data-old_color="#000000" fill="#4949E7"/><path d="m98 248c-2.211 0-4 1.789-4 4v20c0 2.211 1.789 4 4 4s4-1.789 4-4v-20c0-2.211-1.789-4-4-4z" data-original="#000000" class="active-path" data-old_color="#000000" fill="#4949E7"/><path d="m154 248c-2.211 0-4 1.789-4 4v20c0 2.211 1.789 4 4 4s4-1.789 4-4v-20c0-2.211-1.789-4-4-4z" data-original="#000000" class="active-path" data-old_color="#000000" fill="#4949E7"/><path d="m251.117 24h-82.234c-13.526 0-24.717 10.049-26.58 23.067-2.824-1.931-6.232-3.067-9.905-3.067h-92.796c-9.707 0-17.602 7.895-17.602 17.602v68.797c0 9.706 7.895 17.601 17.602 17.601h15.855l15.469 18.562c.777.93 1.91 1.438 3.074 1.438.457 0 .918-.078 1.363-.238 1.582-.574 2.637-2.078 2.637-3.762v-16h11.283c1.261 2.207 2.839 4.26 4.717 6.104v35.896c0 11.454 8.806 20.883 20 21.898v4.957l-3.684 1.598c-5.648 2.457-11.59 4.223-17.875 6.09l-2.07.617c-9.793 2.914-16.371 10.887-16.371 19.828v27.012c0 2.211 1.789 4 4 4s4-1.789 4-4v-27.012c0-5.375 4.281-10.266 10.656-12.164l2.062-.613c6.242-1.855 12.695-3.77 18.785-6.422l1.659-.72c1.919 4.08 6.038 6.931 10.838 6.931s8.919-2.85 10.837-6.931l1.659.72c6.09 2.652 12.543 4.566 18.785 6.422l2.066.613c6.371 1.898 10.652 6.789 10.652 12.164v27.012c0 2.211 1.789 4 4 4s4-1.789 4-4v-27.012c0-8.941-6.578-16.914-16.367-19.828l-2.074-.617c-6.285-1.867-12.227-3.633-17.875-6.09l-3.683-1.598v-4.957c11.194-1.015 20-10.444 20-21.898v-24.322c3.331 1.481 7.008 2.322 10.883 2.322h5.117v12c0 1.699 1.074 3.211 2.676 3.773.434.152.883.227 1.324.227 1.191 0 2.348-.535 3.125-1.5l11.598-14.5h58.395c14.823 0 26.882-12.059 26.882-26.883v-90.234c0-14.824-12.059-26.883-26.883-26.883zm-177.117 116c-2.211 0-4 1.789-4 4v8.953l-9.594-11.516c-.762-.91-1.887-1.438-3.074-1.438h-17.73c-5.293 0-9.602-4.309-9.602-9.602v-68.795c0-5.293 4.309-9.602 9.602-9.602h92.797c5.293 0 9.602 4.309 9.602 9.602v70.836c-1.495-.288-3.031-.438-4.602-.438h-47.399c-2.211 0-4 1.789-4 4 0 1.361.157 2.69.383 4zm52 84c-2.207 0-4-1.793-4-4v-8h8v8c0 2.207-1.793 4-4 4zm24-34c0 7.719-6.281 14-14 14h-20c-7.719 0-14-6.281-14-14v-30.18c5.111 2.633 11.106 4.18 17.539 4.18h12.105c2.211 0 4-1.789 4-4s-1.789-4-4-4h-12.105c-12.332 0-22.652-6.883-25.027-16h42.887c1.59 0 3.136.296 4.602.737v.38c0 7.469 3.066 14.231 8 19.107v29.776zm120-48.883c0 10.41-8.473 18.883-18.883 18.883h-60.316c-1.215 0-2.363.551-3.125 1.5l-5.676 7.098v-4.598c0-2.211-1.789-4-4-4h-9.117c-10.41 0-18.883-8.473-18.883-18.883v-90.234c0-10.41 8.473-18.883 18.883-18.883h82.234c10.41 0 18.883 8.473 18.883 18.883z" data-original="#000000" class="active-path" data-old_color="#000000" fill="#4949E7"/><path d="m235.715 180.816c-1.562-1.562-4.094-1.562-5.656 0l-3.068 3.068-3.068-3.068c-1.562-1.562-4.094-1.562-5.656 0s-1.562 4.094 0 5.656l3.068 3.068-3.068 3.068c-1.562 1.562-1.562 4.094 0 5.656.781.781 1.805 1.172 2.828 1.172s2.047-.391 2.828-1.172l3.068-3.068 3.068 3.068c.781.781 1.805 1.172 2.828 1.172s2.047-.391 2.828-1.172c1.562-1.562 1.562-4.094 0-5.656l-3.068-3.068 3.068-3.068c1.562-1.562 1.562-4.093 0-5.656z" data-original="#000000" class="active-path" data-old_color="#000000" fill="#4949E7"/><path d="m207.277 37.07-56 52c-1.203 1.117-1.602 2.859-1 4.391s2.078 2.539 3.723 2.539h12v52c0 2.211 1.789 4 4 4h80c2.211 0 4-1.789 4-4v-52h12c1.645 0 3.121-1.008 3.723-2.539s.203-3.273-1-4.391l-56-52c-1.539-1.429-3.907-1.429-5.446 0zm10.723 106.93h-16v-28h16zm32-56c-2.211 0-4 1.789-4 4v52h-20v-32c0-2.211-1.789-4-4-4h-24c-2.211 0-4 1.789-4 4v32h-20v-52c0-2.211-1.789-4-4-4h-5.812l45.812-42.543 45.812 42.543z" data-original="#000000" class="active-path" data-old_color="#000000" fill="#4949E7"/><path d="m198 80c0 6.617 5.383 12 12 12s12-5.383 12-12-5.383-12-12-12-12 5.383-12 12zm16 0c0 2.207-1.793 4-4 4s-4-1.793-4-4 1.793-4 4-4 4 1.793 4 4z" data-original="#000000" class="active-path" data-old_color="#000000" fill="#4949E7"/></g></g> </svg>
