<svg id="Layer_1" data-name="Layer 1" xmlns="http://www.w3.org/2000/svg" viewBox="0 0 936 936"><defs><style>.cls-1{fill:#4949e7;}.cls-2{fill:#fff;}</style></defs><circle class="cls-1" cx="468" cy="468" r="468"/><path class="cls-2" d="M763.67,581.73c-1-1-1.88-2-2.77-2.85V471.26C760.9,385.65,691.2,316,605.54,316H475.37C389.72,316,320,385.65,320,471.26V578c-1.19,1.08-2.41,2.31-3.71,3.72C295.1,604.79,283.62,635.24,284,667.5c-.39,32.26,11.09,62.71,32.32,85.77,7.77,8.42,12.79,10.73,23.38,10.73h38.57a32.63,32.63,0,0,0,32.6-32.58V603.58A32.62,32.62,0,0,0,378.28,571H340V508.4a44.53,44.53,0,0,0,69.11-37.14,66.28,66.28,0,0,1,66.22-66.18H605.54a66.29,66.29,0,0,1,66.25,66.18A44.53,44.53,0,0,0,740.9,508.4V571H701.72a32.62,32.62,0,0,0-32.6,32.58V731.42A32.63,32.63,0,0,0,701.72,764H740.3c10.58,0,15.6-2.31,23.37-10.73,21.23-23.06,32.71-53.51,32.32-85.77.39-32.26-11.09-62.71-32.32-85.77ZM347.39,632.56a10,10,0,0,0,10-10V591h20.89a12.6,12.6,0,0,1,12.6,12.58V731.42A12.6,12.6,0,0,1,378.28,744H357.39V712.35a10,10,0,0,0-20,0V744c-2.55-.14-3.19-.82-6.34-4.25-17.79-19.31-27.39-44.91-27-72.09v-.26c-.35-27.17,9.25-52.78,27-72.09,3.16-3.43,3.8-4.11,6.35-4.24v31.52A10,10,0,0,0,347.39,632.56ZM722.61,744H701.72a12.59,12.59,0,0,1-12.59-12.58V603.58A12.59,12.59,0,0,1,701.72,591h20.89ZM485.37,336H595.54v49.08H485.37ZM389.15,471.26a24.56,24.56,0,0,1-49.11,0C340,400,395.4,341.5,465.37,336.37v49.3A86.31,86.31,0,0,0,389.15,471.26ZM716.34,495.8a24.57,24.57,0,0,1-24.55-24.54,86.32,86.32,0,0,0-76.25-85.59v-49.3c70,5.13,125.36,63.67,125.36,134.89a24.58,24.58,0,0,1-24.56,24.54ZM749,739.72c-3.16,3.43-3.8,4.11-6.35,4.24V591c2.55.14,3.19.82,6.35,4.25,17.78,19.31,27.38,44.91,27,72.09v.26C776.34,694.8,766.74,720.41,749,739.72Z" transform="translate(-72 -72)"/><path class="cls-2" d="M634.88,651.38H601.4A10,10,0,0,0,593,655.9L575.7,682.38l-26.31-52.32a10,10,0,0,0-17.87,0l-26.31,52.32L487.88,655.9a10,10,0,0,0-8.37-4.52H446.06a10,10,0,0,0,0,20h28L498,707.85a10,10,0,0,0,17.3-1l25.16-50.06,25.17,50.06a10,10,0,0,0,8.36,5.49l.58,0a10,10,0,0,0,8.36-4.53l23.88-36.47h28.08a10,10,0,0,0,0-20Z" transform="translate(-72 -72)"/><path class="cls-2" d="M337.39,667.5a10,10,0,1,0,0-.06Z" transform="translate(-72 -72)"/></svg>