<?xml version="1.0"?>
<svg xmlns="http://www.w3.org/2000/svg" id="Layer_1" enable-background="new 0 0 512.001 512.001" height="512px" viewBox="0 0 512.001 512.001" width="512px"><g><g><path d="m256.224 68.839c-6.417 0-12.878.381-19.203 1.132-4.113.487-7.052 4.218-6.563 8.331s4.226 7.062 8.331 6.563c5.741-.681 11.607-1.026 17.436-1.026 80.757 0 146.457 65.777 146.457 146.628 0 80.852-65.7 146.629-146.457 146.629-30.193 0-59.181-9.122-83.83-26.379-24.104-16.877-42.403-40.264-52.917-67.631-1.485-3.866-5.821-5.799-9.69-4.312-3.867 1.485-5.797 5.824-4.312 9.69 11.589 30.167 31.754 55.942 58.316 74.539 27.183 19.032 59.146 29.092 92.433 29.092 89.027 0 161.457-72.507 161.457-161.629s-72.431-161.627-161.458-161.627z" data-original="#000000" class="active-path" data-old_color="#000000" fill="#4949E7"/><path d="m111.307 251.813c-1.021-7.016-1.54-14.198-1.54-21.347 0-30.182 9.085-59.167 26.273-83.82 16.806-24.105 40.103-42.429 67.371-52.987 3.863-1.496 5.781-5.84 4.286-9.702-1.496-3.862-5.839-5.782-9.702-4.286-30.063 11.641-55.74 31.834-74.26 58.396-18.951 27.184-28.969 59.135-28.969 92.399 0 7.87.57 15.779 1.696 23.509.544 3.732 3.749 6.42 7.412 6.42.36 0 .725-.026 1.091-.079 4.1-.596 6.939-4.404 6.342-8.503z" data-original="#000000" class="active-path" data-old_color="#000000" fill="#4949E7"/><path d="m366.341 286.275c3.804 1.644 8.217-.106 9.86-3.909 7.094-16.413 10.691-33.874 10.691-51.899 0-72.127-58.618-130.806-130.669-130.806s-130.668 58.679-130.668 130.806 58.618 130.806 130.669 130.806c39.142 0 75.893-17.35 100.83-47.602 2.635-3.196 2.18-7.923-1.017-10.558-3.196-2.636-7.924-2.18-10.558 1.017-22.078 26.782-54.61 42.143-89.256 42.143-63.78 0-115.669-51.95-115.669-115.806s51.889-115.806 115.669-115.806 115.669 51.95 115.669 115.806c0 15.966-3.183 31.425-9.461 45.948-1.643 3.802.107 8.217 3.91 9.86z" data-original="#000000" class="active-path" data-old_color="#000000" fill="#4949E7"/><path d="m509.807 396.848-71.363-71.443c14.863-28.413 23.274-60.712 23.274-94.938 0-113.31-92.185-205.494-205.494-205.494s-205.494 92.184-205.494 205.494c0 34.108 8.353 66.302 23.121 94.644l-71.657 71.737c-1.871 1.874-2.616 4.597-1.959 7.163.658 2.565 2.62 4.595 5.163 5.337l55.89 16.323 16.307 55.956c.741 2.545 2.771 4.51 5.34 5.167.616.157 1.24.234 1.86.234 1.965 0 3.882-.773 5.307-2.199l71.763-71.842c28.273 14.676 60.366 22.974 94.36 22.974 33.877 0 65.865-8.24 94.066-22.821l71.61 71.689c1.425 1.426 3.342 2.199 5.307 2.199.62 0 1.244-.077 1.86-.234 2.568-.657 4.599-2.622 5.34-5.167l16.307-55.956 55.89-16.323c2.543-.742 4.505-2.771 5.163-5.337.655-2.567-.09-5.289-1.961-7.163zm-488.059 1.649 59.808-59.873c7.07 11.375 15.219 22.013 24.303 31.769l-40.689 40.785zm66.7 66.762-12.67-43.476 40.694-40.791c9.786 9.092 20.456 17.243 31.866 24.31zm-22.718-234.792c0-105.039 85.455-190.494 190.494-190.494s190.494 85.455 190.494 190.494-85.455 190.494-190.494 190.494-190.494-85.455-190.494-190.494zm357.823 234.792-59.718-59.786c11.423-7.05 22.108-15.187 31.909-24.265l40.479 40.575zm23.278-54.081-40.458-40.555c9.098-9.74 17.262-20.363 24.347-31.725l59.532 59.598z" data-original="#000000" class="active-path" data-old_color="#000000" fill="#4949E7"/><path d="m330.572 210.654c-.882-2.716-3.229-4.695-6.055-5.105l-42.507-6.174-19.042-39.146c-1.255-2.581-3.874-4.22-6.744-4.22s-5.489 1.639-6.744 4.22l-19.042 39.146-42.507 6.174c-2.825.41-5.173 2.39-6.055 5.104-.883 2.716-.146 5.697 1.899 7.689l30.792 29.999-7.264 42.354c-.483 2.813.674 5.657 2.983 7.335s5.37 1.9 7.898.571l38.038-19.998 38.038 19.998c1.098.577 2.296.861 3.489.861 1.555 0 3.103-.483 4.409-1.433 2.31-1.678 3.467-4.521 2.983-7.335l-7.264-42.355 30.792-29.998c2.048-1.991 2.785-4.972 1.903-7.687zm-45.984 29.694c-1.769 1.723-2.576 4.206-2.158 6.64l5.361 31.265-28.077-14.762c-1.093-.574-2.291-.861-3.49-.861s-2.397.287-3.49.861l-28.077 14.762 5.361-31.264c.418-2.434-.39-4.917-2.158-6.64l-22.728-22.142 31.392-4.56c2.458-.356 4.58-1.907 5.666-4.142l14.034-28.852 14.034 28.852c1.086 2.234 3.208 3.785 5.666 4.142l31.391 4.56z" data-original="#000000" class="active-path" data-old_color="#000000" fill="#4949E7"/></g></g> </svg>
